<svg id="Layer_1" data-name="Layer 1" xmlns="http://www.w3.org/2000/svg" viewBox="0 0 885.3 1013.08"><defs><style>.cls-1{fill:#3626a6;}.cls-2{fill:#7988bc;}.cls-3{fill:#ddf2e3;}</style></defs><path class="cls-1" d="M704.59,501.39c2.32-12.8,8.06-23.88,15.55-34.29,12.78-17.79,27.17-22.89,48.26-16.52,20.54,6.21,33.58,19.59,38.63,40.57.42,1.76,1,3.49,1.45,5.22,0,.11.24.17.81.53a74.39,74.39,0,0,1,9.39-35c5.86-10.81,13.93-19,26.26-22.2,17.48-4.55,36.84,8.55,39,26.5a10.84,10.84,0,0,1-6.29,11.44c-4.63,2-8.81,1.07-12.39-2.39a19.17,19.17,0,0,1-4.07-6.81c-2.27-5.45-7.78-7.25-12.64-4.22-17.08,10.65-18.72,44.41-2.76,56.57,9.89,7.53,20.67,5.84,31.48,2.89,2.58-.71,2.9-4,4.63-5.66,5.05-4.89,5.24-10.84,5.07-17.32-.82-29.64-1.33-59.29-1-88.94.1-11.19,1-22.3,4.28-33.08a13.47,13.47,0,0,1,10.92-9.83c4.92-1,8.79,1.25,11.89,4.85,3.4,3.94,4,9.45.55,13.3-2.48,2.81-2.94,5.8-3.21,9.11-.81,10,.19,20,.36,30,.5,30,.7,60,1.31,90,.28,13.62.88,27.25,4.77,40.51A11.57,11.57,0,0,1,909,570.82c-6.6,2.06-14.62-1.92-17.1-8.62a41.56,41.56,0,0,1-2.06-11.77c-.22-3.4-1-4.2-4.77-3.07-18.94,5.64-37.45,6.19-54.24-6.6-13.36-10.17-18.87-24.47-21.25-40.59-.43.38-1,.62-1.09,1-3,10.95-5.78,13.13-16.93,13.9a236.57,236.57,0,0,1-32-.06,218.44,218.44,0,0,0-27-.17c-3.66.2-4.21,1.52-3.4,4.56,3.42,12.94,12.37,20.24,24.76,23.5,10,2.61,20,3,30.07-.29a79.35,79.35,0,0,1,12.61-3.05,11.94,11.94,0,0,1,13.2,8.33c1.79,5.67-.37,12-6,14.37-28.43,12.17-66.21,11-88.16-15.43-8.49-10.23-12.16-22-11.9-35.12a67.75,67.75,0,0,0,0-7.79c-3.55,9.37-11.29,9.7-19.34,10.3-13,1-26-.35-38.94-.72-6-.17-12,.06-18,.39-2.75.16-3.2,1.09-2.78,3.7,1.73,11,12.4,21.56,25.05,24.38,10.23,2.27,20.41,2.79,30.57-.62A69.43,69.43,0,0,1,692,538.52,12.13,12.13,0,0,1,705.62,547c1.69,5.57-.67,11.94-6.28,14.29-28.38,11.89-65.48,10.86-87.46-15-11.16-13.12-14-28.18-11.51-44.86,2.58-17.37,11-31.73,22.7-44.16s26.39-12.09,41.31-7.59C688.72,457.06,702.22,474.8,704.59,501.39Zm29.32-9.49c14.79-1.5,28.75-1.23,42.69-1,4.21.06,4-1.34,2.25-4.21-5-8.15-19.09-14.93-28.43-13.56a9,9,0,0,0-5.62,2.95A81.51,81.51,0,0,0,733.91,491.9Zm-104.55-1.17c14.88-1.24,28.69-1.07,42.5-1,1.24,0,3,.68,3.66-.64.76-1.49-.65-2.81-1.47-4-6.8-9.51-16.49-13-27.74-13a7.82,7.82,0,0,0-5.71,2.75C636.37,479.34,633.17,484.56,629.36,490.73Z" transform="translate(-523.08 -28.33)"/><path class="cls-1" d="M927,1036.8l11.91.9c1,.08,2,.36,2,1.68s-.89,1.68-1.92,1.89a5.33,5.33,0,0,1-1.49.12c-14-1.11-28-2.13-41.79-5.36-7.14-1.68-9.7-6.88-10.85-13.25-1.45-7.95-.82-15.93-.34-23.92.17-2.81,0-5.64,0-8.68-6.22,2.15-12.29,4.71-19.25,3.49-8-1.42-11-5-10-13.17,1.18-9.73,1-19.21-4.76-27.85-2-3-3.16-6.57-4.91-9.77-1.31-2.42-1.42-5.77-6-5.36-2.83.25-2.66-4.18-4.51-6,.76-4.73-4.66-8.53-2-13.54,1.31-8.12,9.07-9.13,14.41-12.35,9.15-5.52,19.33-9.32,27.67-16.28.74-.62,1.8-1.4,2.62-1.31,6.73.75,6.71-3.92,7.07-8.46.58-7.25.95-14.52,2.82-21.62,3.34-12.68,10.28-18.65,23.25-18.88,4.24-.07,5.12-1.84,5.24-5.31.14-4,.59-7.94.72-11.92.07-2.36.68-3.9,3.39-3.68l4.3-.2c.14,5.13.34,10.26.39,15.39,0,1.45.18,3.37,1.67,2.94,6.2-1.78,11.82,2.19,17.68,1.57,11.47-1.19,22.92-.24,34.37-.32,2.6,0,3.34-.66,3.35-3.35,0-4.88-2.26-9.37-2.08-14.23,3.92-.51,6.26,1.06,7.16,5,.32,1.37.5,3,1.85,4-.23,5.8,3.15,7.2,8.19,7,4.3-.18,8.62,0,12.94,0,4.89.08,7.65,2.61,8,7.45.63,7.6,1.47,15.2,1.62,22.81.08,4,1.37,5.38,5.09,4.65,2.32-.45,5.47,1.6,6.7-2.29s-.12-11-2.63-13l-8.23-2.64c1.76-3.67,3.69-4.27,8.9-4.29,21.92-.06,43.67,2.48,65.43,4.44,13.63,1.22,27.27,2.73,40.87,4.73,11.73,1.72,23.9.91,35.83,2,5.62.54,11.26,1,16.83,1.87,3.85.59,6.15-.24,7.49-4.25a101.92,101.92,0,0,1,8.76-19.9c1-1.72,2-3.65,4.39-3.45s3.21,2.19,4,4A35.8,35.8,0,0,1,1216,851.7c.11,19.76.55,39.55-5.69,58.73a13.74,13.74,0,0,1-3.56,5.81c-1.88,1.86-3.58,2.64-4.76-.65-.16-.45-.25-1.16-.55-1.27-9.91-3.74-8.46-12.05-7.59-19.74.49-4.26.08-6.31-4.83-5.86a13.39,13.39,0,0,1-10.26-3c-1.29-1.1-2.84-.7-4.3-.83-8.81-.76-17.62.05-26.43,0a10.31,10.31,0,0,0-9-.11c-3.21,1.16-4.9-3.12-8-2.26-.43-1.2-3.13-.11-2.46-2.25.59-1.89,2.39-1.46,3.8-1.26,6,.81,12,1.76,17.94,2.59,1.06.15,2.49.65,3.08-.7.51-1.18-.62-1.67-1.52-2.08.59-3.74,1.21-7.48,1.76-11.23.16-1.1.46-2.27-1-3-1.7-.85-2.11.82-3.14,1.28-1.83.83-.82,4.47-3.22,3.67-3.06-1-2.32,1.09-2.62,2.4-.36,1.61-.57,3.25-.84,4.87h-3.91c1.39-3.1,1.14-6.5,1.74-9.74.25-1.36.82-3.48-1-3.89-1.58-.36-3.41-2-5-.45-1.33,1.24-2.42,2.78-1,4.8.7,1,1.05,2.33-.41,2.92s-2.21-.73-2.74-1.67c-.79-1.38-1.84-2.86-.8-4.63,2.15-3.66-.63-3.86-3-4.11-13.05-1.38-26.1-2.76-39.17-4-8.61-.83-10.13,1.15-7.42,9.35.34,1,.83,1.89-.44,2.45-1.11.51-1.91-.16-2.54-1a10.16,10.16,0,0,1-1.84-8.52c.47-2.21.89-3.89-2.21-3.8s-2.17,2.28-2,3.92c.54,5.43,1.83,10.84.26,16.31-.24.84.09,1.46,1,1.93,6.59,3.34,11.6.92,12.68-6.31.49-3.28.65-6.61,1-9.91.16-1.42.82-2.79,2.44-2.55,2,.29,1.21,1.71,1,3.08-.46,3.28-.59,6.6-.85,9.91-3.49,7-3.49,7,4,6.94,1.14,0,2.28-.06,3.42-.1,4.28,1,4.46-2.17,4.78-4.88.41-3.43.4-6.91.78-10.35.18-1.59,1.43-2.2,3-1.58,1,.42,1.65,1.38.78,2.34-2.63,2.9-.78,6.25-1.11,9.38-1.71,4.41-.4,6.28,4.5,6,5.24-.27,10.32,1.11,15.26,2.29-.75,2-1.44,3.84-2.13,5.67-2,2.11-4,4.08-4.13-1.09,0-1-1-.4-1.6-.48-4.55-.4-8.36-3.84-13.16-3.2-1.59-.16-1.76,1.65-2.91,2.09-1.13-.6-1.62-2-3.18-2.17-8.21-1.18-16.5-.92-24.74-1.47-2.15-.15-.77,1.69-1.2,2.53a9.13,9.13,0,0,0-2.6,1.41c-2,2.2-3.26,1.91-4-.92-.85-3.1-3-3.07-5.44-2.22-3,1.07-6,1.62-8.84-.57-1.15-2.62-2.11-5.3-5.73-2.31-1,.79-2.83.57-4.3.66-4.85.3-9.5-1-14.2-1.93-3.83-.76-4.59.68-2.62,3.9.54,1.83.8,4-.81,5.08-4.06,2.79-3.48,6.85-3.42,10.74.32,18.45.62,36.9,1.22,55.34.11,3.25-2,6-1.23,9.22,3.57,15.63,1.16,31.72,3.69,47.46.83,5.2.52,10.62.38,15.93-.11,3.69-2.22,6.49-6,6.93-7.77.92-14.87,4.27-22.41,5.79a175.09,175.09,0,0,1-48.89,3.24c-1.15-.1-2.13-.32-2.1-1.48a2.35,2.35,0,0,1,3.14-2.29c4,1.08,7.86-.27,11.67-.07,9.25.49,18.18-1.86,27.3-2.1a6.43,6.43,0,0,0,4.5-1.57c-8.55-2.35-16.87.45-25.23,1-12.63.83-25.23,1.46-37.88.85l-19-1.31c-1.16-1.18-2.63-.94-4.06-.9a1,1,0,0,0-1.19-.79c-2.49-1.21-5-1.83-8.15-.18,2.91,1.4,5.52,1.08,8.11.86l1.12.23c1,1.3,2.58.76,3.87,1.16C914,1037.09,920.71,1035.39,927,1036.8Zm-24-12.94,1,1a8.61,8.61,0,0,0,8.32,2.54c-2.91-.48-5.17-3.05-8.41-2.46.22-.89-.4-1-1-1l-.05-.18Zm-28-129-1.09,1c-1.4,1.24-3.5,1.73-4.28,3.66,2.16.55,4.06,1.36,6,1.43A22.47,22.47,0,0,0,882,900c2.86-.77,4.6-2.23,1.8-5.13.44-3-.17-4.78-3.63-2.86-1.09.6-2.15,1.25-3.22,1.87l.06,0-2,1Zm322.79-30.21,1.31-.32a3.67,3.67,0,0,0,.66,0c.26,1,.52,2,.79,3-.41,2.23,0,4.16-4,3.2-4.54-1.07-9.45-2.61-14.51-.76-1.75.64-4.18-.42-6.27-.86s-2.51-1.48-.85-3c4.65,0,9.51,1.25,14.42-1.79-2.42-1.64-3.48-.63-4.82.11-2.08,1.16-6.45.74-7.14-.29-1.76-2.63-1.76-2.63-3.36.62l-3-.41c0-2.38-1.54-3-3.52-3-1,0-2,0-2.38,1.15-.42,1.48,1.3,1.65,1.75,2.62-2.5.07-5,.21-7.49.18-1.65,0-2.26.53-2.43,2.27-.37,3.78-1.05,7.54-1.61,11.31-.13.8-.52,1.81.47,2.14s2.11.56,2.66-.58c2-4.15,5.16-2.14,8-1.61a6,6,0,0,1,1.61.79c4.87,2.56,12-2.36,15.52,4.52.06.13,1.26-.57,1.76-.4,3.93,1.34,8-2.18,11.83.34-.9,2.84,1.14,5.41.74,8.21-1.87,3.59-.82,7.43-.88,11.16-.06,3.57,1.21,7.14,5.18,7.28s5.83-2.88,5.66-6.95l-2.9.58c.76-2.93,1.48-5.88,2.32-8.79.41-1.42,0-2.16-1.43-2.34-.7-2-4.58-.39-4.16-3.67l.12-7.4c.21-4.93-.15-9.89,1-14.75,2.74-19.21,2.74-19.21,6.12-21.37-2.54,3.86.18,7.36.28,11a2,2,0,0,0,1.85,2c1.28.16,1.79-.69,1.87-1.77a43.56,43.56,0,0,0-1.68-15.7c-.54-1.83-2.53-3.82-4-1.76-4,5.71-9,11.29-7.3,19.26-2.12.78-1.74,3-2.53,4.49-.51.52-1,1.05-1.51,1.58a4.11,4.11,0,0,0-3.32,1.93c1.68.15,2.88-.17,3.72-1.39ZM884,943c1.94-3.05.77-6.17.73-9.61a8.71,8.71,0,0,0-4.08,3.55A1.36,1.36,0,0,0,879,938l-9.43,6.42c-4.24,1.77-8.15,4.88-13.89,2.41,1.32,2.26.77,4.11,2.32,5.14-.31,1.65-.52,4.3.49,4.65,4.7,1.65,3.6,5.91,4.52,9.11,1.39,4.79,1.06,9.8,1.1,14.76,0,1.15-.79,3.06,1.06,3.32,3.7.52,7.47.63,11.21.9l.06-1L871,982l-.84-3.55c1.56-3.72.28-7.15-1.1-10.57l.08.07c1.32-3.38-3.63-4-3.09-7,2,.44,3.25-1.16,4.84-1.86s3.14-2.66,5.26-1c-2.11,2.05,1.31,2.33,1.22,3.84-.34,5.89.15,11.87-2.56,19,4.08-3.74,4.63,3.35,8.15.95l1.28-.58,2.46-.8c3.5,1.82,6,4,5.67,8.66-.21,3.5,1.19,7.07,1.64,10.64.38,3,1.91,4.38,4.87,4.29q1.18,7.37,2.35,14.73c.16,1,.25,2.47,1.25,2.49,6,.16,11.21,4.53,18.48,3.35-4.55-3.37-8.6-6-12.1-9.14-2-1.78-6.94-1.06-5.85-4.71,1-3.41,5.26-1,8-1.69l0-.11c-.22,1.67,1.18,1.3,2,1.61.38,3.15,3.13,2.66,5.12,3.33,8.14,7.71,17.52,11.9,29,10.26a27.11,27.11,0,0,1,3.49,0c14.61-.22,27.7-6,41-11.14,1.43,0,2.86,0,4.06-.94,3.65-1,7.26-2.26,11-2.91s8-2.1,9.57,3.89c.91-4.43,1-7.73-4.14-9-3.13-.8-6-2.74-8.93-4.17,1-1.77,1.9-3.64,4.15-4.18l7,3.33c-1.3-12.36-2.56-24.3-3.84-36.53-2.82,8.89-6.38,17.36-8,26.46-1.13,4.2-4.23,6.78-7.59,9.14-5.81-3.33-3.12-8.84-3.1-14.66-5.16,6.59-9.15,12.73-14.26,18-3.1,3.17-6.9,5.48-11.13,3.89-4.46-1.68-6.36-.15-7.7,3.65-5.74-.62-11.7,1.47-17.26-1.36q2.91-7.75,5.83-15.5a41.84,41.84,0,0,0-7.32,7.9,12.1,12.1,0,0,1-9.31,4.83c-2-1.15-4.77-1.14-5.61-3.91q1.9-6.82,3.8-13.65c-4.07,4.58-8.67,4.81-13.76,2.83-.07-2.45,1.5-4.68.94-7.19,2-3,1.67-4.4-2.3-3.65a21.93,21.93,0,0,1-3.35.14l-1.9-.47c-2.35-6.21,1.32-12.06,1.37-18.45-.68.58-1,.92-1.43,1.22-2,1.58-4.36,2-6.41.53s-.41-3.36,0-5c1.57-5.89,3.18-11.78,6.14-17.19,3.11.11,6.68,1.08,7-3.85,4.76-3.76,7.86-3.2,9,1.63-.09,1.24-.19,2.47-.28,3.7-2.42,5.66-3.38,11.67-4.17,17.8l12.6-18.21c4.32-4,6.46-4.28,9.75-1.09-2.6,8.1-6.5,15.66-9.73,23.5-.44,1.08-2.4,2.38-.72,3.37s2.48-1.12,3.23-2.29c5.2-8.12,11-15.84,15.16-24.63,2.25-1.36,3.31-3.53,4-5.92,2.31-3.34,5.82-4.28,9-2.48,2.72,1.55-.17,4-.72,6a2,2,0,0,0-.44,2.11,44.69,44.69,0,0,0-5,9.2,4.51,4.51,0,0,0-1.67,3.27L943,978.44l1.39.93,22.25-30.52c2.73-2.82,5.55-5.58,6.7-9.51a12.6,12.6,0,0,1,4.51-3.65l6.25,1.17c1.67,1.22,1.59,3,.91,4.48-1.23,2.69-2.85,5.2-4.25,7.81-6.86,12.77-13.7,25.55-20.69,38.6,2.9.22,3.26-1.79,4-3.08,6.38-11.47,12.23-23.22,18.63-34.69,5.25-9.41,8.58-12,16.2-8.8l.42,2c-9.52,14.31-18.38,29-23.87,45.68.75-.1,1.42,0,1.63-.26,7.22-9.25,14.8-18.27,20.54-28.59l1.43-1c2.6-.42,5.11-1.44,7.85-1.08s3.27-1.3,3-3.67c-1.12-12.17-2.17-24.34-3.3-37-11.57,7.62-24.41,9.2-37.58,10.07-11,.72-21.94.24-32.9.75-2.63-1-4.53.2-6.25,2-8-.14-16-.4-23.83-2.9-7.21-2.3-7.74-1.57-8.13,5.66-1.62-1,.28-4.48-2.23-4.3s-1.88,3.2-2.27,5c-1.2,5.45.15,10.93.68,16.33.77,7.89-2,15.36-1.86,23.05.08,4.42-1.17,6.92-5.55,7.65l-1.56-3.71c-1-5.22.94-10.64-1-15.79-.05-1.66-.1-3.32-.16-5,0-1.08,0-2.16,0-3.23,0-2.61.07-5.21.1-7.82C884,944.3,884,943.63,884,943Zm-31.81-20.92c7-4.87,13.81-10.13,21.6-13.85.86-.41,2.29-.58,2.1-2.67-5.57,1.21-11,2.64-16.5,3.54a31.15,31.15,0,0,0-19.75,11.36c-2.19,2.66-1,3.34,1.62,3.58,4,5.67,4,5.68,8.72.64C850.8,923.82,851.49,922.92,852.23,922.05Zm208.21-49c1,3.53,4.28,2.22,6.41,2.47,1.7.19.84-2.41,1.22-3.73,1.62-5.64-1.2-11.11-.75-16.72.08-1-.59-.86-1.19-1-5.07-1.4-9.24,1-10.41,6.28a75.51,75.51,0,0,0-1.49,8.84c-.15,1.5-1.4,3.81.58,4.44,1.67.52,4.09,2,5.74-.54ZM883.86,919.78c-.11-3.59,0-7.22-.9-11a16.27,16.27,0,0,1-2.74,1.52,68.49,68.49,0,0,0-29.17,18,9.46,9.46,0,0,0-2.22,8.5c1.22,5.35,11.39,8.3,16.57,5.84s9.12-6.76,14-9.38c5.23-2.82,5.32-6.56,4.55-11.21Zm109.74-3.89,8.56-5.87,2.92-1.81c1.34-.93,1.08-2.35,1-3.64-.72-11.6-1.25-23.22-2.32-34.8-.56-6.06-1.3-12.23-4.14-17.83-1.18-2.33-3-4.84-5.63-3.59-3,1.43-5.28.77-8.29.27-2.8-.47-5-2.32-7.31-2.45-10.77-.61-21.42-2.91-32.27-2.22q-15.66,1-31.32,2c-1,.06-2.37,0-2.81.62-3.82,5-10.67,7.8-11.22,15.2-.84-.94-1.07-2.62-2.74-2.55a1.15,1.15,0,0,0-1,1.46c1.93,5.45-1.76,10.35-1.4,15.82.4,6,2.17,12.11.88,18.25-.36,1.73-.41,3.7,1.77,3.79,1.91.09,1.75-2,2-3.42,1.56-10.37.77-20.81.77-31.22,3.7-.38,4.58,1.54,4.16,4.84-2,15.48-3.94,31-5.9,46.47.44,4.3,3.21,6.55,7,8,7,2.78,14.13,2.89,21.54,2.23,6.71-.59,13.37-1.81,20.3-.68,9.32,1.51,18.83,2.3,28.23.23,12-2.64,23.92-5.65,34-13.27,4.39-3.31,4.76-4,4-8.64C1008.36,908.86,1002.26,914.43,993.6,915.89Zm48.5-63.22c-3.33.82-7.33-1.38-7.58,3.48-.23,4.44.31,8.91.45,13.36,0,1.49,1.23,1.15,2,1.56,3.15,1.65,6.67-.05,9.73,1,3.23,1.16,3.65-.58,4.13-2.89,1-4.64.75-9.53,2.87-13.94.15-.33,1-.7.31-1a10.71,10.71,0,0,0-7.68-.9c-2.35.66-2.14,2.64-2,4.42.06,1.13,1.73,2.71-.56,3.09-2.13.35-2.66-1.39-2.85-3.2C1040.74,856.1,1041.3,854.75,1042.1,852.67Zm-57.46,168.7c4.6,1.69,21-2.17,23.08-4.92a1.38,1.38,0,0,0,.15-1.79c-.68-.9-1.5-.23-2.22,0C998.87,1016.81,992.1,1019,984.64,1021.37Zm9.11,8c7,.71,13.81,1.35,19.76-3.22-3.42.6-6.88,1.24-10.25.56C999.48,1026,996.81,1028.32,993.75,1029.41ZM892.28,1028c.25-4-1.94-6.4-4.09-8.82C889.49,1022,887.61,1026.16,892.28,1028Zm138.37-153.7a30.15,30.15,0,0,0,14.24.92C1040.26,876.25,1036,872.85,1030.65,874.34ZM1157,860.88c-1,.2-2.67-.33-2.49,1.44.14,1.32,1.55,1.54,2.76,1.52s2.61,0,2.5-1.57S1158.14,861,1157,860.88Zm-234.93,164.5c-.09-.08-.16-.21-.27-.24a1.5,1.5,0,0,0-.42,0,2.11,2.11,0,0,0,.33.44S922,1025.47,922.08,1025.38Zm25.31-35.19c0,.1-.16.22-.14.29.15.42.36.43.54,0,0-.07,0-.22-.13-.29S947.49,990.2,947.39,990.19Z" transform="translate(-523.08 -28.33)"/><path class="cls-1" d="M826.25,142.88c-.43-26.95,7.38-51.09,24.39-72.17a75.46,75.46,0,0,1,24.54-20.14c10.66-5.4,20.43-12.36,31.75-16.65,32.73-12.4,82.56-5.43,110.51,33.4,29.82,41.41,30.58,98.22-.06,139-12.93,17.21-28.09,32.61-49.88,39-13.28,3.92-26.71,4.6-40.48,3.09-15.25-1.67-30.66-2.82-44-11.31C848.54,215.18,825.08,186.4,826.25,142.88ZM856,150.21c-2.35,37.3,18.51,59.66,41.34,64.3,5.36,1.09,10.84,1.59,16.16,2.8,16.53,3.75,33.26,3.06,49.47-.24,17.7-3.6,28.93-16.43,36.33-32.33a222.91,222.91,0,0,0,10.15-27.55c9.41-30-.28-54.81-20-76.65C979,69,965.3,61.66,950.3,57.61s-29.78,1-44.32,3.46c-16.49,2.78-27.07,15.05-34.88,29.13C859.51,111.12,858.37,134.62,856,150.21Z" transform="translate(-523.08 -28.33)"/><path class="cls-1" d="M1016.67,463.35A228.77,228.77,0,0,1,1043.35,478c10.91,6.74,16.34,16.58,16.59,29.48.56,29.8-10.2,45.6-39.53,56.8-23.18,8.85-46.72,7.1-70.27,1.54-9.55-2.25-14.09-8.94-12.85-18.78.26-2.14.7-4.28.76-6.43,1.06-34.8,1.5-69.59-.12-104.39-.73-15.8-.62-31.64-.68-47.46,0-12.41,7.15-17.53,18.87-14,5.31,1.61,10.58-.46,15.73-1.26a105.62,105.62,0,0,1,45,2.84c18.46,5.13,27.48,16.68,29.1,36.49,1.24,15.21-3.35,27.85-14.93,37.89C1026.37,454.74,1021.8,458.83,1016.67,463.35Zm-51,50.19h-1c0,8.31,0,16.62,0,24.94,0,2.27.29,3.89,3,4.18,17.52,1.92,34.83,2.68,51-6.44,13.24-7.46,16.63-13.78,15-28.82-.35-3.28-1.61-5.68-4.44-7.29-6.21-3.52-12.25-7.4-18.68-10.49-13.63-6.57-28.19-5.08-42.64-4.19-2.57.16-2.13,2.09-2.14,3.67C965.62,497.25,965.64,505.39,965.64,513.54Zm13.44-115.93c-3.6.5-8.44.11-13.2,1.26-2.93.7-4.1,1.66-3.88,4.91,1.13,16.75,2,33.53,2.92,50.3.13,2.58.76,3.07,3.26,2.26,17.24-5.61,33.59-12.71,46.36-26.26,5.72-6.07,7-17.53,2.46-24.49a6.13,6.13,0,0,0-3.49-2.66C1002.64,399.79,991.81,396.42,979.08,397.61Z" transform="translate(-523.08 -28.33)"/><path class="cls-1" d="M547.79,511.77q0,18.48,0,37a46.13,46.13,0,0,1-.15,5c-.78,7.13-5.91,11.82-12.18,11.22-7.09-.69-13-7.37-11.64-14.24,2.73-14.26,1-28.54.76-42.79-.36-18.65-1.29-37.29-1-55.95.4-21.82,0-43.64-.52-65.45-.16-7.06,1.63-11.56,8.91-15.27,6.17-3.15,10.51-3.67,17-1.81,5.84,1.69,12.56.51,18.88.33,18.49-.54,37,1.14,55.46.42,7.31-.28,12.35,4.59,12.53,10.88s-4.77,11.19-12.43,11.54a408,408,0,0,1-49.94-1.08c-8.8-.68-17.67,0-26.43-1.41-2.48-.4-3.25.56-3,3a420,420,0,0,1,2.06,51.4c-.08,3,1.73,2.58,3.57,2.43,16-1.32,32-.5,48,0,7.22.24,12,5,11.89,11.47-.16,6.12-4.72,10.51-11.45,10.75-10.85.39-21.6-1.4-32.42-1.7-5.16-.14-10.32-.21-15.48-.49-3.25-.18-4.18,1-4.13,4.31.2,13.49.08,27,.08,40.47Z" transform="translate(-523.08 -28.33)"/><path class="cls-1" d="M1140.14,550.23a52.87,52.87,0,0,1-21.12,14c-18.23,6.46-34.08-.6-41.51-18.55-3.55-8.58-4.27-17.75-5.53-26.82-2.11-15.28-.93-30.6-.77-45.9,0-5.15.41-10.23-.93-15.37-1.21-4.62.86-8.58,4.76-11.24a10.71,10.71,0,0,1,12.25-.31c5.22,3.11,7.32,8,7.56,13.84.45,10.49.77,21,1.19,31.45.53,13.15,1.41,26.27,4,39.21a30.47,30.47,0,0,0,1.11,4.35c2,5.48,4.65,6.71,10,4.59,5-2,8.84-5.06,11.19-10.09,7.76-16.64,12-34.16,13.74-52.38.83-8.61.86-17.31,2.82-25.8,1.75-7.62,6.63-12.09,13.21-12s11.48,4.7,12.91,12.32c1.23,6.59.83,13.28,1,19.93.57,23.64-1,47.29.37,70.94a34.8,34.8,0,0,1-.44,8,12.76,12.76,0,0,1-23.76,3.91C1141.5,553.21,1141,552,1140.14,550.23Z" transform="translate(-523.08 -28.33)"/><path class="cls-1" d="M1234.34,469.2c-11.63-.34-22.19.79-32.73,2-1.39.16-2.67,1.26-4,1.85-6.07,2.67-11.83,1.69-16.94-2.17-3.92-3-5.24-7.26-3.86-12.06,1.73-6,5.84-9.71,12-10.64,18.26-2.76,36.47-6.11,55.07-5.7,4.85.11,9.65.29,14.13,2.49,8,4,11.26,11.61,8.18,20.05a50,50,0,0,1-3.69,7.62c-12.42,21.67-22.31,44.67-35,66.19-2.11,3.58-1.62,4.82,2.65,4.82q21,0,42,.38A72.74,72.74,0,0,1,1283,545c7.31,1.23,12.13,7.31,11.44,14-.72,7.05-6.19,12.34-13.65,11.81-24.27-1.7-48.63.23-72.89-1.79-11.79-1-18.45-10.93-14-22,4.59-11.45,10.9-22.09,17.08-32.72C1219.36,499.93,1225.48,484.42,1234.34,469.2Z" transform="translate(-523.08 -28.33)"/><path class="cls-1" d="M1355.36,571.46c-9.53-.4-21.85-.77-34.15-1.47-10.93-.62-17.61-10.71-13.76-21,4.21-11.26,10.49-21.56,16.49-31.91,8.2-14.14,14.41-29.27,22.46-43.47,1.35-2.39,1.29-3.56-2-3.5-9.5.18-19,1.07-28.4,2-1.76.17-3,1.31-4.53,2-6.06,2.72-11.81,1.73-16.94-2.1a10.47,10.47,0,0,1-4-11.55c1.59-6.27,5.69-10.19,12.06-11.16,18.26-2.8,36.48-6.12,55.08-5.68,4.67.11,9.31.2,13.69,2.23,8.54,3.95,11.92,11.95,8.52,20.71a53.32,53.32,0,0,1-3.53,7.15c-12.44,21.66-22.31,44.69-35,66.21-2.09,3.54-1.61,4.85,2.67,4.85q20.73,0,41.47.33a76.9,76.9,0,0,1,11.44,1c7.31,1.22,12.11,7.35,11.39,14.09-.76,7.07-6.2,12.13-13.7,11.76C1382.46,571.3,1370.32,570.7,1355.36,571.46Z" transform="translate(-523.08 -28.33)"/><path class="cls-2" d="M914,809.84c-5.86,2.21-11.11,1-16.43-2.11-2.18-1.28-2.56-2.49-2.68-4.61-.8-13.6-.65-27.26-2.71-40.79a32.28,32.28,0,0,1,1.48-14.77c.8-2.47,1.68-4.21,3.59-.62.79,1.5,1.87,2.65,3.12.31,1.69-3.18,5.07,1.07,6.9-2-.47,3-1.44,5.53,3.21,3.56,23.81-10.07,48.29-13.15,73.61-6.41,6.91,1.84,13.9,3.36,20.84,5.06,1,.24,1.88.6,3-.22-1.19-3.65-4.3-4.75-7.45-5.71-9-2.71-18.28-3.43-27.5-4.53-8.41-1-16.88-1.5-25.34-2-4.29-.23-8.67-.71-12.92.53-5.46,1.6-11.12-.71-16.58,1,2.6-1.83,5.69-2.06,8.54-2.19,24-1.06,47.91-.07,71.54,4.71a44.61,44.61,0,0,1,9.9,3.35c4,1.84,3.06,7.65,7.48,9.07-.21.43-.36,1.2-.63,1.24-6.84,1.14-2.89,6-3.22,9.32-2.66-.8-4,.15-4.37,2.94-1.23,8.72.32,17.36.82,26,.21,3.71.31,6.12-4.18,6-.58-10.22-2.65-20.31-2.26-30.91-4,1.26-7.4,2.44-10.87,3.42-12.74,3.59-25.49,7.1-39,4.54-8.8-1.67-17.65-3.09-26.43-4.85-5.17-1-10.39-2.19-14.61-5.76,1-1.9,2.4-.51,3.43-.2a54.93,54.93,0,0,0,17.62,2c1.14,0,2.57,0,2.71-1.49s-1.2-1.83-2.35-2c-4.84-.8-9.67-1.76-14.54-2.23-1.73-.17-3.69-.06-4.2-1.67-.64-2.06,1.29-3.13,3-4,2.38-1.23,4.83-2.15,7.6-1.62-.71,1.29-2.52,1.71-2.77,4.43,24.79,2.76,49.62,3,74.5,2.18-.62,2.82-3,3.21-5.24,3.8-5.38,1.38-10.88.8-16.32,1-1.56.07-3.21.29-3.11,2.32a2.31,2.31,0,0,0,2.86,2.1c6.85-1,14,0,20.61-2.38a9,9,0,0,0,3.39-14.4c-2-2.15-3.6-2.33-4.64.81-4.57-1.18-10.83,2.77-13.48-4.43-.14-.39-1.16-.57-1.79-.63C967.46,746,957,742.35,946,743.92l.06.06c-6-1.74-11.16,1.63-16.74,2.48,2.5.12,4.94-.24,7.4-.27,1.29,0,2.85.42,2.79,2.15-.05,1.41-1.31,1.69-2.55,1.8-3,.27-5.91.59-8.87.88.29-2.66-1.57-2.75-3.47-3.07-9.36-1.59-21.44,11.22-20.75,18.39,1,10.08.8,20.15.83,30.23,0,3.88,1.79,5.9,5.8,5.65l5.44-.34c4.21,4.45,10,2.82,15.62,4.36-1.81-3.1-3.18-5.57-2.17-8.52l2.57.17c.64,4.25,2.87,6.5,7.4,6.12,2.28-.18,3.92.68,3.74,3.38,1.29,1.58,2,2.88-1.11,2.58-4.23-.39-8.49-1-12.65-1.56-4.46-.65-9.28.25-13.48-2.21a1.72,1.72,0,0,0-2.57.5C912.51,808,913.5,808.86,914,809.84Zm54.83-40.09c-5.5,1.38-10.88-.25-16.33-.29A31.72,31.72,0,0,0,968.86,769.75Zm-68-3c-4.73,3.7-4.64,6.73,0,10Z" transform="translate(-523.08 -28.33)"/><path class="cls-1" d="M879.55,840.65,878,840.1c-.77-.38-1.13-.15-1.08.71-1,9-2.23,17.93.37,26.85.44,1.5-3.81,4.25-5.61,4-7.61-1.1-15.21-2.23-22.86-3-3.22-.31-6.14-.18-7.41-4.06-.61-1.87-2.79-1.46-4.39-1.66-6.06-.73-12.11-1.52-18.18-2.11-2.59-.24-4.42-4.17-7.55-1.5-.15-3.83,3.25-6.34,3.6-10.09.41-4.3-1.74-9-5.16-9.43-4.25-.58-8.5-1.38-12.83-.77-3.64-.37-7.26-.82-10.91-1.12-10.76-.88-21.59-.35-32.33-1.95-8.5-1.27-17.09-2-25.63-3a1.9,1.9,0,0,0-1.88-1.92c-11.15-1.39-22.3-2.76-33.44-4.18-3.69-.47-5.15.94-4.64,4.71.22,1.64.55,3.66-1.63,4.8-1.44-1-1.28-3.33-3.11-4.07-2.28,7,.87,11.65,6.9,10.43,2.8.74,5.29-1.09,8.23-.66,16,2.38,32.15,4.35,48.22,6.59,16.71,2.33,33.39,5,50.2,6.5,1.1,2.7,2.9,4.3,6,3.9,2.54-.33,3.59,1.08,3.82,3.38-20.24-1.35-40.12-5.33-60.18-7.89-19.74-2.53-39.08-7.66-59.07-8.56-7.76-.36-10.56-5.57-7.69-12.87,4.11-10.46,5.07-10.39,15.78-8.71,28.88,4.53,57.62,9.57,87,9.79,10.7.09,21.45,1.77,32,3.95,3.38.7,6.93.58,10.41.83.76.24,1.52.54,2.3.72,1.48.34,3.06.7,2.77,2.67s-2.14,1.69-3.52,1.64c-2.21-.08-4.6.61-6.54-1.13-1.45-1.68-3.13-1.82-2.94.67a36.65,36.65,0,0,1-1.05,12.09c-.39,1.52,1.05,1.21,2,1.27,1.08,4.14,4.15,1,6.14,1.43,6.87,1.31,13.72,3.38,20.88,2.55,1.29,1,2,.8,2.13-.95.69-6.92,1.59-13.81,2.08-20.74.16-2.34-2.5-1.63-3.88-2.18s-4.1.52-3.89-1.79c.22-2.49,2.95-1.45,4.54-1.43,13.62.22,27.09,2.08,40.52,4.12,1.81.27,5-.26,4.62,2.43s-3.24,1.09-5,1.24C884.13,839.87,881.7,841.19,879.55,840.65ZM852,837.11c.33,1.19.86,2.1.77,2.95-.76,7.2-1.65,14.4-2.46,21.6-.11,1-.86,2.52.67,3,2.19.69,1-1.3,1.45-2.08.88-1.67,2.32-1.34,3.87-1.13,4.26.55,8.53,1,12.81,1.34,2.54.2,4-.89,4-3.77-.08-5.63,0-11.28.12-16.91.06-2.15-.75-3-2.78-3.15C864.28,838.39,858.2,837.74,852,837.11Z" transform="translate(-523.08 -28.33)"/><path class="cls-1" d="M1289.07,652.5c-51.62-.42-103.19,1.41-154.76,3.26-5.16.19-10.24-1.36-15.41-.3a2.57,2.57,0,0,1-3-2,3.17,3.17,0,0,1,1.62-3.79,6.17,6.17,0,0,1,3.82-.91c13.85,1,27.58-1.39,41.39-1.43,47.61-.16,95.16-3.38,142.81-1.72,16.94.59,34-.59,50.92-.89,3.48-.07,7-.42,10.32,1.16,2.06,1,3.8,2.51,2.66,5.09-1,2.19-2.81,2.51-5,1.62-2.69-1.08-5.56-.8-8.38-.77C1333.68,652,1311.39,653.1,1289.07,652.5Z" transform="translate(-523.08 -28.33)"/><path class="cls-1" d="M737.32,661.47C710.83,664.26,684.45,659,658,660c-22.44.89-44.84,3-67.33,2-2.36-.1-5.61.86-5.61-3,0-3.46,3.15-3.68,5.55-3.58,29.49,1.2,58.86-4.49,88.3-2.19,32.27,2.52,64.56-.49,96.8,1.32,2.38.14,4.57.45,4.81,3.18s-2,3.79-4.27,3.86c-5.31.15-10.64-.08-16-.1C752.63,661.45,745,661.47,737.32,661.47Z" transform="translate(-523.08 -28.33)"/><path class="cls-1" d="M832.6,936.18c.07.32.14.64.22,1,2,5.32,3.4,11,7.9,15l0,.1a1.67,1.67,0,0,0,1.1,1.79c6.36,10.64,11.22,21.81,11.5,34.46.14,6.72-1.48,12.42-8.92,14.8-2.89.93-4.81,4.22-8.39,3.77l-1.26-3.28c.2-2.78,3.34-2.8,4.92-5.28-2.39-.6-5.76-.57-4.83-4.13,2-7.68-.22-15.1-1.65-22.43-1-5.35-3.13-10.73-8.15-14.08-4-4.79-8.21-9.38-12.12-14.18-1.84-2.27-5,.18-5.53-2.52s4.49-1.64,3.75-4.86c2.45-2.17,4.88-4.51,8.1-5.33,2-.51,1.4-1.83,1.68-3,2.52-1,3.82,2.17,6.16,1.83h0C828.57,932.26,829.77,934.92,832.6,936.18Zm-12.47-1.13c3.31-1.42,4.93.52,5.88,3.21.68,1.91,1.3,3.38,3.75,2.4a17.85,17.85,0,0,0-4.28-6.61c-2.73-2.83-2.75-2.8-5.28,1l-.25,0Zm26.39,38.05-1.33.2L849,988.5C849.08,983.18,848.57,978,846.52,973.1Zm-5.86,21.1a11.39,11.39,0,0,0-1.94-12.93C838.4,985.45,840.29,989.28,840.66,994.2Z" transform="translate(-523.08 -28.33)"/><path class="cls-1" d="M914,809.84c-.53-1-1.52-1.87-.77-3.14a1.72,1.72,0,0,1,2.57-.5c4.2,2.46,9,1.56,13.48,2.21,4.16.61,8.42,1.17,12.65,1.56,3.11.3,2.4-1,1.11-2.57,10.77,1.31,21.49.17,32.18-.87a92.08,92.08,0,0,0,24.6-5.43c1.95-.76,4.31-1.17,4.25-4.07,4.49.11,4.39-2.3,4.18-6-.5-8.65-2-17.29-.82-26,.4-2.79,1.71-3.74,4.37-2.94.27.92.53,1.83.8,2.74-2.52,1.64-1.56,4.09-1.49,6.33-.33,11.05,1.53,21.91,2.85,32.82l1.14,4.11c-.19,5.93-5,4-8.14,4.73-.21-.75-.42-1.5-.62-2.25-.13-.55-.25-1.1-.37-1.65-.58-1.38-1.34-.77-2.1-.18L985,813.92c-3.77-.79-7,2.23-10.5,1.83-6.35-.71-13.12,1-18.88-3.72-3.43-2.83-6.22,1.89-9.53,1.92-8.79.07-17.52-.93-26.25-1.71C917.46,812.43,916.14,810.21,914,809.84Z" transform="translate(-523.08 -28.33)"/><path class="cls-2" d="M811.19,936.28c.74,3.22-4.26,2.26-3.75,4.86s3.69.25,5.53,2.52c3.91,4.8,8.15,9.39,12.12,14.18-1.26,2,.78,2.95,1.51,4.21,3.38,5.82,5.9,12,6.43,18.69.56,7.12.8,14.29-.59,21.37-.51,2.58.09,3.21,2.36,1.65l1.26,3.28c-4.3,5.82-10.38,9.5-16.92,11.67-9.8,3.27-20.07-1.62-27.32-11.83A41.43,41.43,0,0,1,784.21,986,91.77,91.77,0,0,1,787.39,953c1.75-6.06,5.35-10.47,10.29-14.73,6.14-5.32,13.2-8.74,19.93-12.82,6.9-4.18,7.44-3.68,9.52,4.42-2.34.34-3.64-2.78-6.16-1.83-4.91,1.41-8.85,4.5-13.49,7.45ZM793.05,950l-1,1.3c.44,1.86-.83,3.17-1.6,4.56-9.93,17.85-6.35,43.82,13.62,56.64a3.92,3.92,0,0,0,2.54,2.16c11.72,5.1,22.1-2.42,22.38-16.22-.74-4,1.6-7.87.32-11.85.75-1.94,1.34-3.87-.36-5.66l0,.09c-.35-1.36.73-3.09-1.07-4.07l0,.08c-.05-1.31.23-2.74-.21-3.91-4.14-11.18-11.5-20.07-20.2-28-1.08-1-2.28-1.38-3.51-.16l-1.17-1.09c-3.22-3.51-6.55-2-8.83,4.13l0-.07c-1.18.23-.69,1.34-1,2Z" transform="translate(-523.08 -28.33)"/><path class="cls-1" d="M1287.79,882c-.6,9.62-1.33,19.22-4.81,28.37-.83,2.19-1.42,4.63-4.31,4.78-3.15.16-4.68-2.06-5.87-4.55-1.55-3.25-1.24-6.84-1.67-10.27-.31-2.46-1-3.27-3.49-3.62a291.66,291.66,0,0,0-44.78-2.72c-1.33,0-2.67,0-4,0-1.09,0-2-.43-1.89-1.75.07-1,.85-1.32,1.72-1.37s1.66,0,2.49,0a404.26,404.26,0,0,1,51.6,2.36c1.86.19,2.12,1.15,2.12,2.63,0,2,.08,4,.13,6,0,1.47-.08,2.94,0,4.4s-.51,3.73,2,3.61c2.36-.12,2.57-1.82,2.09-3.88-.43-1.85-1-3.91,1.06-5.33.61,0,1.53.12,1.49-.74-.19-4.87,1.64-9.6.88-14.49,0-6,.18-12.06-2.34-17.74a2.42,2.42,0,0,1,.12-2.75c1-1.21,2.1-.47,3.17-.19,1.94.51,1.45,2.23,1.87,3.59C1286.73,872.78,1285,877.8,1287.79,882Z" transform="translate(-523.08 -28.33)"/><path class="cls-2" d="M796.94,839.05c4.33-.61,8.58.19,12.83.77,3.42.47,5.57,5.13,5.16,9.43-.35,3.75-3.75,6.26-3.6,10.09-2.23,0-2.08,3.52-4.58,3.13-.23-2.3-1.28-3.71-3.82-3.38-3.11.4-4.91-1.2-6-3.9.71-.94,1.44-1.87,1.05-3.17,1.8-1.34,2.76-2.79.65-4.68a36.19,36.19,0,0,0-20.31-2.63c-7.37-.53-14.64-1.89-22.1-1.89-3.25,0-6.91.1-10.1-1.51-1.72-1.84-4-1.17-6.12-1.44-2.31-.3-4.63-.53-6.9-1-1-.19-2-.95-1.62-2.13.38-1.36,1.51-.92,2.44-.59,3.86,1.39,7.92.66,11.88,1.09,17.14,1.9,34.31,3.52,51.47,5.24C797.16,841.35,797.05,840.2,796.94,839.05Zm5.18,13c.67,1.28,2.19,1.52,3.11,2.71,1.64,2.1,2.9,1.08,3.41-1.18,1.66-1.24,3-2.69,2.18-4.94-.35-.94-1.6-1.86-2.33-1.22C806.49,849.11,802.68,848.36,802.12,852Z" transform="translate(-523.08 -28.33)"/><path class="cls-2" d="M919.8,812.24c8.73.78,17.46,1.78,26.25,1.71,3.31,0,6.1-4.75,9.53-1.92,5.76,4.73,12.53,3,18.88,3.72,3.51.4,6.73-2.62,10.5-1.83,4.43,2.69,8.79,1.18,13.11-.28,2.79-.94,5.53-2.06,8.3-3.09.2.75.41,1.5.62,2.25-3.83,3.17-8.64,4-13.22,4.85s-5.6,3.05-4.72,7.11c.3,1.36,1.23,2.82-.1,4.18-1.35-1-1.53-2.6-1.85-4-.9-4-3.24-5.53-7.16-5-2.46.33-4.9.81-7.37.95-16.11.85-32-1.78-48-2.95l-4.3.2C920.11,816.18,920,814.21,919.8,812.24Z" transform="translate(-523.08 -28.33)"/><path class="cls-2" d="M1011.14,771.14c-.07-2.24-1-4.69,1.49-6.33.54,1.12,1.08,2.23,2.16,4.49.11-2.31.09-3.27.22-4.21.2-1.56-.81-3.78,1.12-4.49,2.46-.9,2.48,2.12,3.79,3.17,1,.8,1,2.09.9,3.26-.7,9.74,2.19,19.1,3,28.69.12,1.46.18,2.31,2.19,3,3.32,1.16,2.42,4.6,1.14,6.76-1.57,2.65-3.53.87-4.65-.86-1.28-2-2.06-.75-3.06.1-1.38,1.17-2.37,2.83-4.27,3.34L1014,804c2.19-.63,5.43-2.14,4-4-2.37-3.15-1.49-6.31-2.07-9.45C1014.74,784,1016.1,776.76,1011.14,771.14Z" transform="translate(-523.08 -28.33)"/><path class="cls-1" d="M887.13,652.14c.24,4.59-.62,9.23,1,13.77a3.94,3.94,0,0,1-2,4.69c-1.65,1-3,.1-3.7-1.34-1-1.88-2.57-1-3.93-1.17-5.57-.58-8.11-4.4-7.45-11.24.62-6.38,2.72-8.44,8.49-7.83,1.69.18,2.09-.33,2.11-1.72s-.16-3,0-4.46c.2-1.87,1.25-3.08,3.32-2.87s2.23,1.57,2.2,3.23C887.09,646.18,887.13,649.16,887.13,652.14Zm-9.86,1.62c-.78,3.36-2.39,6.12.55,8.28,1.57,1.15,3-.42,3.59-1.57C883.31,656.46,878.54,656.67,877.27,653.76Z" transform="translate(-523.08 -28.33)"/><path class="cls-1" d="M819.33,644.41c-.66,2.28.5,4.34.49,6.44,0,3.08,1.17,4.16,4.21,3.73,2-.28,4.46-.07,4.54,2.57s-2.23,3-4.34,2.77c-3-.31-3.41,1.1-2.68,3.51a3,3,0,0,1,.16,1c0,2.61,1.52,6.43-2.69,6.62-3.85.17-3-3.56-3.11-6.08s.13-5.5-4-5.23a2.59,2.59,0,0,1-2.84-2.29,2.29,2.29,0,0,1,2.32-2.67c2.91-.12,2.94-1.79,2.77-4a46.65,46.65,0,0,1,0-8.44c.27-2.43,1.57-4.58,4.42-4.49a6.65,6.65,0,0,1,6.41,4.64,2.6,2.6,0,0,1-.9,3.12C822.14,647.05,821,644.38,819.33,644.41Z" transform="translate(-523.08 -28.33)"/><path class="cls-1" d="M1010.2,661.62c-2.92-.49-5.39-3.4-6.12-6.42a58.73,58.73,0,0,1-1.36-16.29c.1-2.14.57-4.32,3.3-3.88s3.34,2.08,2.38,4.8-1.5,5.45,3.37,5.27a8.09,8.09,0,0,1,8.09,8.3C1019.66,657.42,1015.41,661.4,1010.2,661.62Z" transform="translate(-523.08 -28.33)"/><path class="cls-2" d="M1287.79,882c-2.79-4.21-1.06-9.23-2.43-13.72-.42-1.36.07-3.08-1.87-3.59-1.07-.28-2.19-1-3.17.19a2.42,2.42,0,0,0-.12,2.75c2.52,5.68,2.39,11.72,2.34,17.74l-2.37,15.23c-2.11,1.42-1.49,3.48-1.06,5.33.48,2.06.27,3.76-2.09,3.88-2.53.12-2-2.07-2-3.61s0-2.93,0-4.4c2.38-9.28,5.75-18.46,2.85-28.27-1-2,2-5.22-1.81-6.5.23-3.19,1.58-6,2.93-8.82.77-1.61,1.62-3.5,3.89-3.2,1.91.25,2.53,2,3.1,3.51C1288.84,866.18,1288.47,874.09,1287.79,882Z" transform="translate(-523.08 -28.33)"/><path class="cls-1" d="M920.74,662.85c1-4.83,1.38-8.14.48-11.52-.61-2.26-.1-4.15,2.45-4.47,2.35-.29,3.1,1.55,3.27,3.52.69,8-1,15.88-1.07,23.84a2.67,2.67,0,0,1-2.94,2.75c-2.13,0-2.78-1.49-2.8-3.36,0-2.89,0-4.8-3.13-7.38-4.16-3.43-4.75-10.24-5.93-15.9-.22-1,.71-1.87,1.75-2.1a2.57,2.57,0,0,1,3.09,1.88C917.39,653.88,918.79,657.68,920.74,662.85Z" transform="translate(-523.08 -28.33)"/><path class="cls-1" d="M1076.71,649.7c-1.8.11-3.4-.17-3.69-2.34s1.11-2.91,2.73-3.64c5.53-2.51,8.78-1.08,9.79,4.67.4,2.28,1.8,1.5,2.82,1.27,2.06-.46,4-.34,4.3,2s-1.68,3-3.56,3.36c-2.23.47-4.61.25-7.18,1.7,2.42.29,4.38.43,6.29.8a2.61,2.61,0,0,1,2.28,2.85,2.94,2.94,0,0,1-2.58,2.62,10.47,10.47,0,0,1-13.2-9.45c-.09-2,1.29-2.47,2.8-2.86.88-.1,1.69-.74,1.24-1.45C1078,647.94,1077.32,649.18,1076.71,649.7Z" transform="translate(-523.08 -28.33)"/><path class="cls-2" d="M1151.74,878.89c.9.41,2,.9,1.52,2.08-.59,1.35-2,.85-3.08.7-6-.83-12-1.78-17.94-2.59-1.41-.2-3.21-.63-3.8,1.26-.67,2.14,2,1,2.46,2.25.89,2.84.34,4.51-3.13,4.2-2-.17-4,0-5.93,0,.69-1.83,1.38-3.66,2.13-5.67-4.94-1.18-10-2.56-15.26-2.29-4.9.25-6.21-1.62-4.5-6,3.09,2.29,6.21,4.47,10.61,2.32a17.36,17.36,0,0,0-1.47-1.7c-.85-.74-2.28-1.36-1.06-2.69,1.07-1.17,2.16,0,3.07.55a6.94,6.94,0,0,1,2.62,3.55c.52,1.36,1.3,2.32,2.94,2.1,3,2.75,2.76-.94,3.86-2,1.6.06,3.35.64,4.18-1.54.52-1.35,2.18-2,2.44-.54.86,4.75,5,2.63,7.41,4h3.91Z" transform="translate(-523.08 -28.33)"/><path class="cls-1" d="M957.63,656.85c2.19-2.31,2.15-4.78,3-6.84.66-1.51,1.61-2.68,3.26-2.66,1.9,0,2.81,1.36,3.34,3.14,1,3.41.18,7.23,2.69,10.39.89,1.12-.24,2.91-1.64,3.76s-3.05.88-4-.55c-1.2-1.78-1.94-2.47-4-.82-2.42,1.9-4.8.64-6.35-1.72-2.65-4.07-3.17-8.71-3-13.42,0-2,1.36-3.15,3.36-2.66,1.72.42,3.23,1.66,2.44,3.63C955.63,651.75,956.76,653.93,957.63,656.85Z" transform="translate(-523.08 -28.33)"/><path class="cls-1" d="M1037.1,657.9c-5.92,3.38-9.14,2.14-10.68-3.88a21.12,21.12,0,0,1-.68-8.41c.31-2,1.32-3.68,3.57-3.24,1.9.37,2.38,1.84,1.88,3.88a8.83,8.83,0,0,0,1.08,7.3c1.94-1.61,1.87-4.16,3-6.1.78-1.34,1.66-2.54,3.44-2.45a3.4,3.4,0,0,1,3.35,3.12c.75,4.22,1.47,8.45,2,12.69a2.9,2.9,0,0,1-2.3,3.39c-1.8.46-2.89-.58-3.5-2.07A41.15,41.15,0,0,1,1037.1,657.9Z" transform="translate(-523.08 -28.33)"/><path class="cls-1" d="M1058.69,656.39c1.24,2.31,3.62,1.45,5.36,2.16s3.3,1.13,2.94,3.28c-.4,2.37-2.23,2.51-4.21,2.35-7.37-.57-10-3.32-10.66-10.34-.3-3.12,3.66-2.77,3.59-5.36-1.55-1-2.83.14-4.21.45-1.65.37-3,0-3.52-1.83a2.63,2.63,0,0,1,1.68-3.21c2.65-1.31,5.51-1.07,8.31-1,3.46.12,3.37,3.75,4.85,5.2C1070.93,656,1060.53,654,1058.69,656.39Z" transform="translate(-523.08 -28.33)"/><path class="cls-1" d="M1276.07,867c3.78,1.28.8,4.45,1.81,6.5-1.93,3.39-5.22,2.08-8.06,2.32a13.26,13.26,0,0,0-7.93-.88c-10.22-1.14-20.44-2.3-30.66-3.4-3.66-.4-7.4-2-10.91.66-.84.64-1.64,0-2-.72a4.12,4.12,0,0,1-.37-3.36c.43-1.21,1.43-1.21,2.47-1.1,4.45.47,8.92.86,13.37,1.42q17.57,2.24,35.21,3.6C1273.08,872.39,1275.58,871.39,1276.07,867Z" transform="translate(-523.08 -28.33)"/><path class="cls-1" d="M856.72,649.06c3.1.52,4.61,3.3,5.79,6s-1.17,3.68-3.23,4.56c-1,.44-3.12.22-2.06,2.36a2.19,2.19,0,0,0,3.24,1.2c2.24-1.11,4.16-.63,4.26,2.09s-1.87,4.34-4.41,4.48c-3,.18-5.4-1.3-7.31-3.59s-2.15-5-4-7.27C847.66,657.09,853.92,649.08,856.72,649.06Z" transform="translate(-523.08 -28.33)"/><path class="cls-2" d="M1261.89,875a13.26,13.26,0,0,1,7.93.88c1.57,5.44.36,7-5.29,5.85-12-2.43-24.36-2.82-36.31-5.68-1.21-.29-3.14.26-3.09-1.62.07-2.33,2.23-1.61,3.49-1.46,7.72.91,15.38,2.3,23.17,2.62C1255.18,875.72,1258.62,877,1261.89,875Z" transform="translate(-523.08 -28.33)"/><path class="cls-1" d="M845.15,655.45c-.2,2.55-2,3.08-3.8,3.42-1.5.29-2.67.72-2.11,2.51s1.29,1.92,3.17,1.11c2.94-1.27,4.1.82,3.42,3.36-.83,3-3.13,4.71-6.43,3.94-4-.94-8.33-10.23-6.71-14,.39-.91.53-1.91.86-2.84,1.66-4.76,4.36-5.44,8-1.83C842.9,652.44,844.81,653.45,845.15,655.45Z" transform="translate(-523.08 -28.33)"/><path class="cls-1" d="M948.1,659.59c-.12,2.74-1.44,5.53-5.69,5.67-4.74.15-9.13-5.15-9.29-11.09-.12-4.65,2.39-7.19,7-7.08C943.27,647.16,948.05,654.05,948.1,659.59Zm-9.46-7c-.16,3.58.8,5.63,3.53,7.53C942.71,656.57,941.11,654.84,938.64,652.55Z" transform="translate(-523.08 -28.33)"/><path class="cls-1" d="M979.34,649.63c2.34-2,3-7,6.72-4.47,3.29,2.22-.45,4.89-1.47,7.2-1.13,2.57-2.57,5-3.94,7.45a3.15,3.15,0,0,1-3.25,1.83,3,3,0,0,1-2.58-2.65c-.46-3.43-1-6.85-1.34-10.29a2.35,2.35,0,0,1,1.76-2.67C978.13,645.36,978.13,648.11,979.34,649.63Z" transform="translate(-523.08 -28.33)"/><path class="cls-2" d="M820.05,842.91c1.94,1.74,4.33,1.05,6.54,1.13,1.38.05,3.2.43,3.52-1.64s-1.29-2.33-2.77-2.67c-.78-.18-1.54-.48-2.3-.72l15.45-.21c1.4,0,2.74.12,3.27,1.65a2.76,2.76,0,0,1-1.12,3.49c-.41.27-1,.51-1.13.9-.72,1.95-.94,5.26-3.45,4.6-3.38-.88.74-4-.68-5.92-4.77,4.05-10.54,2.74-16,2.8C819.44,846.34,818.37,844.9,820.05,842.91Z" transform="translate(-523.08 -28.33)"/><path class="cls-2" d="M1023.15,881c-2-3.22-1.21-4.66,2.62-3.9,4.7.94,9.35,2.23,14.2,1.93,1.47-.09,3.34.13,4.3-.66,3.62-3,4.58-.31,5.73,2.31-1,1.8-2.18,1.9-4.35,1.79C1038.14,882.07,1030.73,880.06,1023.15,881Z" transform="translate(-523.08 -28.33)"/><path class="cls-2" d="M1070.92,883c.43-.84-1-2.68,1.2-2.53,8.24.55,16.53.29,24.74,1.47,1.56.22,2.05,1.57,3.18,2.17-2.19,1.84-4.85,1.14-7.13.8C1085.6,883.8,1078.14,884.74,1070.92,883Z" transform="translate(-523.08 -28.33)"/><path class="cls-2" d="M879.55,840.65c2.15.54,4.58-.78,6.55,1-3.51,2-4.66,4.93-4.25,8.9a73.71,73.71,0,0,1,0,9.4c0,1.49.88,3.84-1.7,3.79-2.14,0-2.07-2.28-2.06-3.87,0-4.13.06-8.26.32-12.37A66.45,66.45,0,0,1,879.55,840.65Z" transform="translate(-523.08 -28.33)"/><path class="cls-2" d="M845,860.92c-7.16.83-14-1.24-20.88-2.55-2-.38-5.06,2.71-6.14-1.43,1.68-3.16,4.66-2,7-1.77,5.55.63,11,1.82,16.55,2.6C843.65,858.05,845.17,858.46,845,860.92Z" transform="translate(-523.08 -28.33)"/><path class="cls-2" d="M832.6,936.18c-2.83-1.26-4-3.92-5.48-6.36,2.65,0,2.55-2.05,2.89-3.77.56-2.87.78-5.87,3.06-8.09-2.64,5,2.78,8.81,2,13.54Z" transform="translate(-523.08 -28.33)"/><path class="cls-2" d="M1020.68,852.94l8.23,2.64c-.16,3.53-4.36,3.47-5.54,6.18-.17.41-1.49.06-1.57-.6C1021.49,858.41,1018.33,856,1020.68,852.94Z" transform="translate(-523.08 -28.33)"/><path class="cls-2" d="M1240.27,888.15a1.87,1.87,0,0,1-2.25,1.45,56.69,56.69,0,0,1-5.82-1c-1.14-.29-3-.33-2.49-2.29.35-1.39,1.75-1.39,2.9-1.22,2,.29,3.89.68,5.81,1.12C1239.42,886.4,1240.26,886.93,1240.27,888.15Z" transform="translate(-523.08 -28.33)"/><path class="cls-2" d="M1103,882c4.8-.64,8.61,2.8,13.16,3.2-3.82,2.21-7.65-.52-11.52,0C1102.92,885.33,1103.36,883.14,1103,882Z" transform="translate(-523.08 -28.33)"/><path class="cls-2" d="M1138.94,884.85a10.31,10.31,0,0,1,9,.11c0,1.38-.43,3.26-1.86,2.5C1143.81,886.22,1139.94,889.33,1138.94,884.85Z" transform="translate(-523.08 -28.33)"/><path class="cls-2" d="M840.72,952.12c-4.5-4-5.9-9.65-7.9-15C837.06,941.29,839.28,946.5,840.72,952.12Z" transform="translate(-523.08 -28.33)"/><path class="cls-1" d="M1100.92,661a2.39,2.39,0,0,1-2.68,2.17c-1.52,0-2.52-.68-2.53-2.28a2.35,2.35,0,0,1,2.85-2.51A2.4,2.4,0,0,1,1100.92,661Z" transform="translate(-523.08 -28.33)"/><path class="cls-2" d="M1261.48,891c-1.58-.19-3.7.28-4.13-1.79-.37-1.79,1.38-2.14,2.69-1.91,1.68.29,4.07.15,4.22,2.51C1264.35,891.3,1262.56,890.85,1261.48,891Z" transform="translate(-523.08 -28.33)"/><path class="cls-2" d="M908.15,1033.73l19,1.31-.06,1.76c-6.34-1.41-13.1.29-19.21-2.69Z" transform="translate(-523.08 -28.33)"/><path class="cls-2" d="M841.87,954a1.67,1.67,0,0,1-1.1-1.79C841.9,952.34,842,953.09,841.87,954Z" transform="translate(-523.08 -28.33)"/><path class="cls-2" d="M877,840.81c-.05-.86.31-1.09,1.08-.71Z" transform="translate(-523.08 -28.33)"/><path class="cls-2" d="M899.28,915.17a98,98,0,0,1,35.12-16.72c-.09-.57,0-1-.21-1.15-8.1-5.11-6.28-11.95,2.68-15,3.63-1.26,5.56-3.36,8.08-6.26,4.75-5.48,12.43-7.25,19.73-5.52s13.53,5.92,19.82,9.86c.34.4.51,1.38,1.17.89s0-1.07-.52-1.43c-.36-1.95-.64-3.92-1.11-5.85-.76-3.22-1.08-6.72-2.63-9.52-1.9-3.43-5.77-1-8.73-1.51-3.78-.6-7.1-2.57-11-3a29.71,29.71,0,0,0-20.7,5c-2.22,1.5-4.85,1.54-6.78-.75s-1.36-4.65-.26-7a3.22,3.22,0,0,1,2.65-2c1.1-.12,2.48-.65,3.11.7.56,1.18-.47,1.7-1.41,2.18-1.46.73-2.61,1.92-1.54,3.51.89,1.33,2.46.56,3.68.13.92-.33,2.14-.7,2.57-1.44,3.6-6.23,9.36-3.89,14.54-3.78,3.48.07,7,.82,10.43.36,5-.66,9.16,1.91,13.69,2.73,3.87.69,5.55,6.42,6.77,10.21a61.6,61.6,0,0,1,2.51,18.7c0,1.12.42,2.53-.93,3.1-1.63.68-2.34-.73-3.11-1.79-1-1.35-1.85-2.78-2.93-4-1.86-2.14-3-4.06-6.93-1.65s-9.71,1-14.67.52c-7.95-.78-15.93-1.71-23.72.79-2.39.77-5.62,1.44-5.62,4.82,0,3,2.87,3.8,5.08,4.85a20.22,20.22,0,0,0,9.18,2c6-.1,12,.38,18-.11,14.75-1.19,27.89,2.79,39.79,11.34l-2.92,1.81c-4.57-5.7-11.51-7.32-17.71-10.13-3.9-1.76-7.91.41-11.86.76-9.07.81-18.26.37-27.39.11-2.76-.09-5.52-1.49-8.34-.76-10.19,2.63-19.79,6.65-28.15,13.19-3.13,2.45-2.8,5.93.48,7.91,4.2.81,8.31,2.76,12.7.93,10.4-.19,20.71-1.75,31.25-.4,7.24.93,14.77-.4,22.07-1.84,2.86.54,5.16-1.33,7.79-1.82,4.07,2.08,6.9-2.24,10.6-2.08,8.66-1.46,14.76-7,20.7-12.81.79,4.64.42,5.33-4,8.64-10.11,7.62-22,10.63-34,13.27-9.4,2.07-18.91,1.28-28.23-.23-6.93-1.13-13.59.09-20.3.68-7.41.66-14.55.55-21.54-2.23C902.49,921.72,899.72,919.47,899.28,915.17Zm78.46-34.35c-5-4.16-9.61-4.07-14.67-3-4.75,1-9.63-.71-14.48-.05C957.82,880.86,967.29,881.14,977.74,880.82Z" transform="translate(-523.08 -28.33)"/><path class="cls-2" d="M911,1009.05c-.22-2.31,1.29-4.07,1.95-6.1.5-1.51.85-3.25-1.86-2.5-2.15.6-4.7,2.71-6.38.26-1.79-2.61,1.48-4.32,2.45-6.46.2-.45.43-.87.73-1.45-1.09-1.65-4.2,1.34-4.55-2a8.49,8.49,0,0,1,1.31-5.11c1.22-2.3,1.63-5,3.79-6.83l1.9.47c-.75,2.42-2.52,4.61-1.89,7.49,3.23-.32,4.6-3.64,7.54-4,.56,2.51-1,4.74-.94,7.19l-5.49,8.29c5-2.54,8.38-1.57,11.43,1.16,1.11,1,2.38,1.8,4,1.37.84,2.77,3.63,2.76,5.6,3.9,3.27,2.23,6.72,3.74,10.81,2.78,5.56,2.83,11.52.74,17.26,1.36,3.45.75,6.46-2.07,9.62-1.59,10.6,1.61,19-2.38,26.57-9.25,3.36-2.36,6.46-4.94,7.59-9.14,1.9.15,3.12-3.35,5.18-1.26,1.61,1.63.46,3.71-.15,5.58a10.75,10.75,0,0,0-.26,2.42c-2.25.54-3.14,2.41-4.15,4.18-6.18,1.81-6.56,7.18-7.47,12.22-1.2,1-2.63.94-4.06.94-1-1.49,1-3.19-.53-5-4,2.29-7.9,4.7-12,6.9-2.17,1.17-5.2,2.9-6.93.88-3.93-4.57-5.56-.49-7.87,1.42-1.87,1.55-3.67,4.53-6.19,3.14-3-1.66,1.53-3.83.5-6.18-1.63-.72-3.47-.2-5.26-.26l-13.15-2c-7.39.19-14.79.32-22.06,2-2-.67-4.74-.18-5.12-3.33-.33-1-.84-1.71-2-1.61Zm11-4.67c-2,1.68-4.11,1.68-4.48,3.81a1.24,1.24,0,0,0,1.51,1.45C920.86,1009.06,921.84,1007.67,922,1004.38Z" transform="translate(-523.08 -28.33)"/><path class="cls-3" d="M1174.87,865.83c-1.66,1.56-1.16,2.61.85,3s4.52,1.5,6.27.86c5.06-1.85,10-.31,14.51.76,4.09,1,3.64-1,4-3.2l2.23-.2c-1.11,4.86-.75,9.82-1,14.75-2-.42-2.88,1.79-4.65,1.92-3.86-2.52-7.9,1-11.83-.34-.5-.17-1.7.53-1.76.4-3.55-6.88-10.65-2-15.52-4.52a6,6,0,0,0-1.61-.79c-2.88-.53-6-2.54-8,1.61-.55,1.14-1.8.87-2.66.58s-.6-1.34-.47-2.14c.56-3.77,1.24-7.53,1.61-11.31.17-1.74.78-2.29,2.43-2.27,2.5,0,5-.11,7.49-.18,1.42-.06,2.93.45,4.15-.73l3,.41Zm-9.67,3.48c1.25-1.29,4.75,1.51,4.79-2,0-2.44-2.93-1.33-4.53-1.39-1.82-.06-4.83-1-5,1.64S1163.3,868.65,1165.2,869.31Z" transform="translate(-523.08 -28.33)"/><path class="cls-2" d="M897.89,932.81c.8,3.46-.49,7.12,1.85,10.55,1.58,2.32-2,4.43-1.74,7.38.52,5.26.19,10.61.19,15.93,0,1.8.28,3.69-1.14,5.2-2.18,4.39-.36,9.27-1.65,13.79-.21.75.93,1.21,1.75,1.42,1.44,5.56,1,11.31,1.69,16.94-3,.09-4.49-1.29-4.87-4.29-.45-3.57-1.85-7.14-1.64-10.64.29-4.69-2.17-6.84-5.67-8.66v.07c4.38-.73,5.63-3.23,5.55-7.65-.14-7.69,2.63-15.16,1.86-23.05-.53-5.4-1.88-10.88-.68-16.33.39-1.76-.21-4.78,2.27-5S896.27,931.76,897.89,932.81Z" transform="translate(-523.08 -28.33)"/><path class="cls-2" d="M841.3,924c-2.63-.24-3.81-.92-1.62-3.58a31.15,31.15,0,0,1,19.75-11.36c5.51-.9,10.93-2.33,16.5-3.54.19,2.09-1.24,2.26-2.1,2.67-7.79,3.72-14.57,9-21.6,13.85-1.48-2.28,1.7-3.62,1.41-6.2Z" transform="translate(-523.08 -28.33)"/><path class="cls-2" d="M1202.78,867.09l-2.23.2c-.27-1-.53-2-.79-3l.18-5.5c-1.71-8,3.26-13.55,7.3-19.26,1.45-2.06,3.44-.07,4,1.76a43.56,43.56,0,0,1,1.68,15.7c-.08,1.08-.59,1.93-1.87,1.77a2,2,0,0,1-1.85-2c-.1-3.68-2.82-7.18-.28-11C1205.52,847.88,1205.52,847.88,1202.78,867.09Z" transform="translate(-523.08 -28.33)"/><path class="cls-2" d="M924.15,937.76l5.7-7.71c1.72-1.8,3.62-3,6.25-2-.27,4-4.53,5.47-6.07,9.23,4.21.42,7.22-2.18,10.65-3.19,1.89-.56,3.7-1.49,5.62-1.9,2.55-.55,2.28.93,1.49,2.54-.17.24-.53.59-.47.69.36.58.73.25,1.06-.09,2,0,3.55-1.84,5.66-1.34-.74,2.39-1.8,4.56-4,5.92-.58-1.68-1.45-2.36-3.3-1.45a33.06,33.06,0,0,1-4.64,1.5c-3.29-3.19-5.43-3-9.75,1.09-2.92-2-5.54,1.87-8.43.41C924,940.23,924.06,939,924.15,937.76Z" transform="translate(-523.08 -28.33)"/><path class="cls-2" d="M900.77,861.73c.09.71.17,1.42.25,2.13,0,10.41.79,20.85-.77,31.22-.21,1.46,0,3.51-2,3.42-2.18-.09-2.13-2.06-1.77-3.79,1.29-6.14-.48-12.2-.88-18.25-.36-5.47,3.33-10.37,1.4-15.82a1.15,1.15,0,0,1,1-1.46C899.7,859.11,899.93,860.79,900.77,861.73Z" transform="translate(-523.08 -28.33)"/><path class="cls-2" d="M883.86,952.79c0,1.07,0,2.15,0,3.23-1.12.33-3.15-.57-3.21,1-.07,1.86.78,3.89,3.37,4,2,5.15,0,10.57,1,15.79-4.83.53-4.22-3.43-5-6.15-1.28-4.21.77-9.46-3.95-12.6-2.12-1.63-3.62.31-5.26,1s-2.81,2.3-4.84,1.86c-1.73-1.33-.39-2.14.57-2.87,1.24-.94,2.81-1.52,3.41-3.16,2.61.34,5-1.42,7.83-.48,1.58.53,1.23-1.41,1.21-2.5l.4-.06Z" transform="translate(-523.08 -28.33)"/><path class="cls-2" d="M1197.17,883.76c1.77-.13,2.67-2.34,4.65-1.92l-.12,7.4c-.9,2.77-1.17,5.44.91,8,1.75-1.29,1-3.92,3.25-4.31,1.46.18,1.84.92,1.43,2.34-.84,2.91-1.56,5.86-2.32,8.79-.89,1.62-1.8,3.2-4.07,2.74a2.65,2.65,0,0,1-2.36-2.68c-.2-4-.42-8.09-.63-12.13C1198.31,889.17,1196.27,886.6,1197.17,883.76Z" transform="translate(-523.08 -28.33)"/><path class="cls-2" d="M966.59,948.85c-2.52-.35-3.59,1.83-5.21,3-2.06,1.5-4,2.88-6.23.24a4.51,4.51,0,0,1,1.67-3.27c4-1.35,5.2-5,6.72-8.37,0,0-1.09-.54-1.68-.83a2,2,0,0,1,.44-2.11c2.07,0,3.88-1.71,6-1.12.55,2.55-2.13,3.76-2,6.31,3,.16,4.06-3.77,7-3.39C972.14,943.27,969.32,946,966.59,948.85Z" transform="translate(-523.08 -28.33)"/><path class="cls-3" d="M1151.74,878.89l-9-2c.27-1.62.48-3.26.84-4.87.3-1.31-.44-3.4,2.62-2.4,2.4.8,1.39-2.84,3.22-3.67,1-.46,1.44-2.13,3.14-1.28,1.42.71,1.12,1.88,1,3C1153,871.41,1152.33,875.15,1151.74,878.89Z" transform="translate(-523.08 -28.33)"/><path class="cls-2" d="M997.55,960c-3.42.1-2.85-2.19-2.06-4,1.53-3.46,3.34-6.8,5.16-10.12,1-1.78,1.67-3.14-1.4-2.72l-.42-2c.83-.06,1.66-.15,2.5-.17,4.57-.13,5.08.65,3.36,4.81-1.84,4.42-5.23,8.16-5.71,13.17Z" transform="translate(-523.08 -28.33)"/><path class="cls-2" d="M884,922c-4.46,3.63-8.34,8-13.71,10.46-1.5.68-2.94,1.65-4.68,1.19a2.05,2.05,0,0,1-1.68-2.16c0-1,.75-1.33,1.67-1.41,5.35-.48,8.79-4.14,12.36-7.53,1.69-1.61,3.25-3.39,6-2.78Z" transform="translate(-523.08 -28.33)"/><path class="cls-2" d="M883.81,894.91c2.8,2.9,1.06,4.36-1.8,5.13a22.47,22.47,0,0,1-6.39.9c-1.93-.07-3.83-.88-6-1.43.78-1.93,2.88-2.42,4.28-3.66l1.09-1h0c.81-.09,1.78.14,2-1l-.06,0Z" transform="translate(-523.08 -28.33)"/><path class="cls-3" d="M1197.91,892c.21,4,.43,8.09.63,12.13a2.65,2.65,0,0,0,2.36,2.68c2.27.46,3.18-1.12,4.07-2.74l2.9-.58c.17,4.07-1.67,7.09-5.66,6.95s-5.24-3.71-5.18-7.28C1197.09,899.4,1196,895.56,1197.91,892Z" transform="translate(-523.08 -28.33)"/><path class="cls-2" d="M1088.59,871c1.33-.53,3.12,3.75,4.31-.58.33-1.18,1.91,0,2.14,1.26.38,2,.67,4.11,1,6.16-1.14,0-2.28.09-3.42.1C1085.1,878.06,1085.1,878.06,1088.59,871Z" transform="translate(-523.08 -28.33)"/><path class="cls-2" d="M871,982c-4.11,0-6-2.18-6-6.18a19,19,0,0,0-.23-3.93c-1.07-4.86-.64-5.3,4.32-3.94l-.08-.07c0,2.08.08,4.17.06,6.26,0,1.54-1.86,3.49,1,4.31Z" transform="translate(-523.08 -28.33)"/><path class="cls-2" d="M1174.87,865.83l-.9-1.35c1.6-3.25,1.6-3.25,3.36-.62.69,1,5.06,1.45,7.14.29,1.34-.74,2.4-1.75,4.82-.11C1184.38,867.08,1179.52,865.8,1174.87,865.83Z" transform="translate(-523.08 -28.33)"/><path class="cls-2" d="M884,945c-5,0-4.92-3.53-5-7a1.36,1.36,0,0,1,1.69-1.05c3.76.56,1,4.68,3.34,6.06C884,943.63,884,944.3,884,945Z" transform="translate(-523.08 -28.33)"/><path class="cls-2" d="M977.8,935.69c.32-1.64,1.74-2.25,2.92-3.09s2.84-2.43,4.33-1.27c1.73,1.35-.76,2.35-.95,3.62a13.5,13.5,0,0,0-.05,1.91Z" transform="translate(-523.08 -28.33)"/><path class="cls-3" d="M1205.86,892.91c-2.29.39-1.5,3-3.25,4.31-2.08-2.54-1.81-5.21-.91-8C1201.28,892.52,1205.16,890.91,1205.86,892.91Z" transform="translate(-523.08 -28.33)"/><path class="cls-2" d="M908.09,940c1.21-3.37,3.8-4.22,7-3.85C914.77,941.06,911.2,940.09,908.09,940Z" transform="translate(-523.08 -28.33)"/><path class="cls-2" d="M1171,864.07c-1.22,1.18-2.73.67-4.15.73-.45-1-2.17-1.14-1.75-2.62.34-1.2,1.42-1.18,2.38-1.15C1169.42,861.09,1171,861.69,1171,864.07Z" transform="translate(-523.08 -28.33)"/><path class="cls-2" d="M1030.65,874.34c5.38-1.49,9.61,1.91,14.24.92A30.15,30.15,0,0,1,1030.65,874.34Z" transform="translate(-523.08 -28.33)"/><path class="cls-3" d="M870.12,978.43c-2.9-.82-1-2.77-1-4.31,0-2.09,0-4.18-.06-6.26C870.4,971.28,871.68,974.71,870.12,978.43Z" transform="translate(-523.08 -28.33)"/><path class="cls-3" d="M883.81,894.91l-6.85-1c1.07-.62,2.13-1.27,3.22-1.87C883.64,890.13,884.25,891.86,883.81,894.91Z" transform="translate(-523.08 -28.33)"/><path class="cls-2" d="M1157,860.88c1.13.13,2.66-.17,2.77,1.39s-1.35,1.56-2.5,1.57-2.62-.2-2.76-1.52C1154.34,860.55,1156,861.08,1157,860.88Z" transform="translate(-523.08 -28.33)"/><path class="cls-2" d="M1060.55,873c-2.73-1.65-1.17-3.53-.22-5.32.1-.2,1.17-.18,1.2-.08.66,2,1.45,4-1.09,5.39Z" transform="translate(-523.08 -28.33)"/><path class="cls-3" d="M1199.94,858.82l-.18,5.5a3.67,3.67,0,0,1-.66,0l-1.18-.46a4.22,4.22,0,0,0-.52-.6C1198.2,861.78,1197.82,859.6,1199.94,858.82Z" transform="translate(-523.08 -28.33)"/><path class="cls-3" d="M1196.3,865.43c-.84,1.22-2,1.54-3.72,1.39a4.11,4.11,0,0,1,3.32-1.93Z" transform="translate(-523.08 -28.33)"/><path class="cls-2" d="M904.08,1032.83c1.43,0,2.9-.28,4.06.9l-.3.38c-1.29-.4-2.86.14-3.87-1.16Z" transform="translate(-523.08 -28.33)"/><path class="cls-3" d="M1197.79,864.69l-1.49.74-.4-.54,1.5-1.58a4.22,4.22,0,0,1,.52.6A3.35,3.35,0,0,0,1197.79,864.69Z" transform="translate(-523.08 -28.33)"/><path class="cls-3" d="M922.07,1025.39c-.12.08-.32.24-.35.21a2.11,2.11,0,0,1-.33-.44,1.5,1.5,0,0,1,.42,0C921.92,1025.17,922,1025.3,922.07,1025.39Z" transform="translate(-523.08 -28.33)"/><path class="cls-3" d="M877,893.88c-.25,1.17-1.22.94-2,1Z" transform="translate(-523.08 -28.33)"/><path class="cls-2" d="M882.92,981.81c.25-.58.64-.85,1.28-.58Z" transform="translate(-523.08 -28.33)"/><path class="cls-3" d="M875,894.9l-1.09,1Z" transform="translate(-523.08 -28.33)"/><path class="cls-3" d="M947.39,990.2c.1,0,.22,0,.27,0s.16.22.13.29c-.18.41-.39.4-.54,0C947.23,990.41,947.34,990.29,947.39,990.2Z" transform="translate(-523.08 -28.33)"/><polygon class="cls-3" points="379.97 995.53 379.82 995.44 379.87 995.63 379.97 995.53"/><path class="cls-2" d="M902.85,1032.72a3.11,3.11,0,0,0,0-.68,1,1,0,0,1,1.19.79l-.11.12Z" transform="translate(-523.08 -28.33)"/><path class="cls-2" d="M1197.79,864.69a3.35,3.35,0,0,1,.13-.78l1.18.46Z" transform="translate(-523.08 -28.33)"/><path class="cls-1" d="M928.06,751l-1.86.71c-.75-.26-1.5-.5-1.94.49l-.07,0c-2.77-.53-5.22.39-7.6,1.62-1.66.86-3.59,1.93-3,4,.51,1.61,2.47,1.5,4.2,1.67,4.87.47,9.7,1.43,14.54,2.23,1.15.19,2.49.55,2.35,2s-1.57,1.46-2.71,1.49a54.93,54.93,0,0,1-17.62-2c-1-.31-2.42-1.7-3.43.2-3.23-1-4.19.31-3.75,3.47s.65,6.59.95,9.9c0,4.9.12,9.82,0,14.72-.21,7.08-.25,7.12,6.84,7.39a2.45,2.45,0,0,1,.93,2.93l-5.44.34c-4,.25-5.79-1.77-5.8-5.65,0-10.08.15-20.15-.83-30.23-.69-7.17,11.39-20,20.75-18.39C926.49,748.27,928.35,748.36,928.06,751Z" transform="translate(-523.08 -28.33)"/><path class="cls-1" d="M995.92,758.88c2.2-3.34-.78-4.78-2.45-6.71,1-3.14,2.68-3,4.64-.81a9,9,0,0,1-3.39,14.4c-6.64,2.41-13.76,1.38-20.61,2.38a2.31,2.31,0,0,1-2.86-2.1c-.1-2,1.55-2.25,3.11-2.32,5.44-.24,10.94.34,16.32-1C993,762.09,995.3,761.7,995.92,758.88Z" transform="translate(-523.08 -28.33)"/><path class="cls-1" d="M931,788.9c6.28,2.41,1.94,5.86.89,9l-2.57-.17A3.13,3.13,0,0,1,929,797Z" transform="translate(-523.08 -28.33)"/><path class="cls-2" d="M692.06,832c-.34,3.62,1.61,7.63-1.79,10.75-6,1.22-9.18-3.38-6.9-10.43,1.83.74,1.67,3.06,3.11,4.07,2.18-1.14,1.85-3.16,1.63-4.8-.51-3.77.95-5.18,4.64-4.71,11.14,1.42,22.29,2.79,33.44,4.18a1.9,1.9,0,0,1,1.88,1.92,1.31,1.31,0,0,1-1.71,1L696,830C694.19,829.76,691.8,828.3,692.06,832Z" transform="translate(-523.08 -28.33)"/><path class="cls-3" d="M846.52,973.1c2.05,4.89,2.56,10.08,2.51,15.4l-3.84-15.2Z" transform="translate(-523.08 -28.33)"/><path class="cls-3" d="M840.66,994.2c-.37-4.92-2.26-8.75-1.94-12.93A11.39,11.39,0,0,1,840.66,994.2Z" transform="translate(-523.08 -28.33)"/><polygon class="cls-3" points="297.05 906.72 296.87 906.68 297.12 906.71 297.05 906.72"/><path class="cls-2" d="M1006,808.9l-2.1-.18C1004.66,808.13,1005.42,807.52,1006,808.9Z" transform="translate(-523.08 -28.33)"/><path class="cls-1" d="M802.89,943.86l1.17,1.09c.65,3.12-3.36,1.41-3.68,3.68,1.64.15,3.61-1.89,4.91.15,4,6.19,11.49,8.89,15,15.64,2.24,4.36,5.14,8.39,7.74,12.57l0-.08c.11,1.42-.17,2.94,1.07,4.07l0-.09.36,5.66c1.28,4-1.06,7.87-.32,11.85-1.1,1.83-2.18,3.69-3.31,5.51-5.17,8.31-12.54,11.21-21.61,8.55-20-12.82-23.55-38.79-13.62-56.64.77-1.39,2-2.7,1.6-4.56l1-1.3v0l1-2,0,.07C797,946.62,799.06,943.34,802.89,943.86Zm16.14,62a.93.93,0,0,0,1-1c1-.38,1.46-1,1-2,1,.49.9-.39,1.07-.91,4.57-4.49,3.91-10.22,3.74-15.83-.21-2.82-.19-5.72-3.24-9.07.93,4,1.55,6.62,2.18,9.28a64.1,64.1,0,0,1-3.23,15.07c-.16.51-.31,1-.46,1.53a1.53,1.53,0,0,0-1,2c-.82-.14-1.07.27-1,1-.7,0-1.3.11-1,1.06l-1.67.15.09.44,1.49-.67Zm1.74-31.72a6.59,6.59,0,0,0,.83.76c.62-.5.29-1-.16-1.38-.18-.62-.52-1.65-1-1.34C819.38,972.83,820.21,973.59,820.77,974.18ZM801.82,1006l.34-.64-.65-.13.41.73c4.81,4.51,7.54,5,12.62,2C810,1009.3,806.18,1006,801.82,1006Zm19.32-19.62a25,25,0,0,0-.74-3.64c-3.41-9.92-8.55-18.16-20.21-19.34-1.71-.17-4.26-3.82-5.55,1.06-3,11.56-1.64,22.37,4.52,32.56a15.4,15.4,0,0,0,9.05,6.64c5.36,1.64,8.17.23,10.15-5A53.58,53.58,0,0,0,821.14,986.41Zm-31.92-2.59.57,0V970.2h-.57Zm33.38-7.09c.1-.1.28-.2.29-.3s-.17-.22-.26-.33l-.31.47Z" transform="translate(-523.08 -28.33)"/><path class="cls-3" d="M829.33,986.55l-.36-5.66C830.67,982.68,830.08,984.61,829.33,986.55Z" transform="translate(-523.08 -28.33)"/><path class="cls-3" d="M829,981c-1.24-1.13-1-2.65-1.07-4.07C829.75,977.89,828.67,979.62,829,981Z" transform="translate(-523.08 -28.33)"/><path class="cls-3" d="M794.1,947.92l-1,2C793.41,949.26,792.92,948.15,794.1,947.92Z" transform="translate(-523.08 -28.33)"/><path class="cls-3" d="M793.05,950l-1,1.3Z" transform="translate(-523.08 -28.33)"/><path class="cls-3" d="M1280.17,900.61l2.37-15.23c.76,4.89-1.07,9.62-.88,14.49C1281.7,900.73,1280.78,900.58,1280.17,900.61Z" transform="translate(-523.08 -28.33)"/><path class="cls-1" d="M798,852c-13.19-2.75-26.56-3.84-40-5.08-18.76-1.75-37.44-4.4-56.15-6.66a4.06,4.06,0,0,1-1.47-.21c-1.86-1.08-5.8-.92-5-3.57.9-3.13,3.49,0,5.36.2,10,1.38,20.16,2.37,30.1,4.26,5.19,1,10.21-.19,15.28.35,3.19,1.61,6.85,1.51,10.1,1.51,7.46,0,14.73,1.36,22.1,1.89l16.66,2.4,1.22.14,2.43.09C800.73,849.23,799.77,850.68,798,852Z" transform="translate(-523.08 -28.33)"/><path class="cls-3" d="M798.62,847.34l-2.43-.09-1.22-.14-16.66-2.4A36.19,36.19,0,0,1,798.62,847.34Z" transform="translate(-523.08 -28.33)"/><path class="cls-1" d="M802.12,852c.56-3.64,4.37-2.89,6.37-4.63.73-.64,2,.28,2.33,1.22.82,2.25-.52,3.7-2.18,4.94A12.27,12.27,0,0,0,802.12,852Z" transform="translate(-523.08 -28.33)"/><path class="cls-3" d="M802.12,852a12.27,12.27,0,0,1,6.52,1.53c-.51,2.26-1.77,3.28-3.41,1.18C804.31,853.52,802.79,853.28,802.12,852Z" transform="translate(-523.08 -28.33)"/><path class="cls-3" d="M877.27,653.76c1.27,2.91,6,2.7,4.14,6.71-.55,1.15-2,2.72-3.59,1.57C874.88,659.88,876.49,657.12,877.27,653.76Z" transform="translate(-523.08 -28.33)"/><path class="cls-3" d="M1076.71,649.7c.61-.52,1.24-1.76,2-.51.45.71-.36,1.35-1.24,1.45Z" transform="translate(-523.08 -28.33)"/><path class="cls-1" d="M1120.92,876.89c.35-4.43-.25-8.9.77-13.31.36-1.59.78-3.07,2.75-2.61s.85,1.86.74,3.12c-.32,3.6-.3,7.23-.4,10.84C1123.68,876,1123.93,879.64,1120.92,876.89Z" transform="translate(-523.08 -28.33)"/><path class="cls-3" d="M938.64,652.55c2.47,2.29,4.07,4,3.53,7.53C939.44,658.18,938.48,656.13,938.64,652.55Z" transform="translate(-523.08 -28.33)"/><path class="cls-2" d="M914.94,889.9c0-6.82,3.91-12.09,10.48-13.49,1.81-.38,1.44-1.35,1.77-2.31,1.21-3.54.92-7.2.81-10.84,0-1.48-.35-3.56,1.43-3.79,2.5-.32,1.14,2.1,1.61,3.27,2.45,6,1.44,11.79-1.38,17.44-1.14,2.29-2.21,4.13-4.44,1.11-1.18-1.59-2.42-.69-2.67.19-.95,3.29-3.17,6.29-2.63,9.93.27,1.81,2,4-1.49,4.44s-3.74-1.85-3.5-4.46C915,890.9,914.93,890.4,914.94,889.9Z" transform="translate(-523.08 -28.33)"/><path class="cls-1" d="M910.51,872.89c1.25-2.35-1.34-6.79,3.67-8.27,1.08-.32,1.74-2.12-.33-2.82-4-1.33-1.86-2.56,0-3.75,1.26-.78,2.64-1.4,3.86-2.24,1.72-1.18,2.85-.21,3.79,1s.1,2-1,2.72c-2.6,1.68-1.94,4.61-2.64,7.05-.84,3,.65,6.78-3.22,8.68-1.12.55-.87,3.36-3.07,2.18C910.11,876.62,910.27,874.92,910.51,872.89Z" transform="translate(-523.08 -28.33)"/><path class="cls-1" d="M975.21,919.79c-1.38-5.29,4.58-2.45,5.63-5.22-.53-1.88-2.56-2.22-3.9-3.32a2.22,2.22,0,0,1-1-2.1c.1-.74.62-1.33,1.32-1.17a12.49,12.49,0,0,1,7.18,5c1.51,2,.57,3.74-1.4,5C980.37,918.46,978.07,920.33,975.21,919.79Z" transform="translate(-523.08 -28.33)"/><path class="cls-1" d="M909.19,921.1c4.32-.9,8.43,1.12,12.7.93C917.5,923.86,913.39,921.91,909.19,921.1Z" transform="translate(-523.08 -28.33)"/><path class="cls-3" d="M985.15,879.8c.54.36,1.09,1,.52,1.43s-.83-.49-1.17-.89Z" transform="translate(-523.08 -28.33)"/><path class="cls-1" d="M927.25,910c1.75-.07,3.27-.37,3.86,1.23.75,2.05-1.21,1.84-2.23,2.45-2.27,1.34-4.42,2.92-6.76,4.11a2.78,2.78,0,0,1-3.64-.62c-1-1.36-.13-2.59.89-3.5C921.74,911.54,924.11,909.35,927.25,910Z" transform="translate(-523.08 -28.33)"/><path class="cls-1" d="M897.15,987.08c-.82-.21-2-.67-1.75-1.42,1.29-4.52-.53-9.4,1.65-13.79Q897.1,979.48,897.15,987.08Z" transform="translate(-523.08 -28.33)"/><path class="cls-1" d="M953.27,1013.93c-5.93,4.47-11.16,3.67-13.15-2Z" transform="translate(-523.08 -28.33)"/><path class="cls-1" d="M1096.22,857.92c1.56-.08,2.57,1,1.91,2-1.49,2.3,2.82,5.8-.94,6.73-2.41.59-2.29-3-2.86-4.92C1093.84,860.13,1094.18,858.47,1096.22,857.92Z" transform="translate(-523.08 -28.33)"/><path class="cls-1" d="M1114,865.44c.6,1.43.59,2.9-.89,2.81-2.34-.15-2.91-2.26-3.15-4.25-.17-1.46.46-2.89,2-2.82C1115,861.32,1113.7,864,1114,865.44Z" transform="translate(-523.08 -28.33)"/><path class="cls-2" d="M1076.39,869.26a2.24,2.24,0,0,1,2.06,2.42c.07,1.25,0,2.83-1.63,3.07s-1.57-1.23-1.61-2.33S1074.81,869.79,1076.39,869.26Z" transform="translate(-523.08 -28.33)"/><path class="cls-2" d="M865.89,923.25a3.74,3.74,0,0,1-.7,1.15c-3.12,2.52-7.11,4.21-7.74,9-.12,1-1.67.82-2.61.39a2.29,2.29,0,0,1-1.42-2.37c.12-2.39,8.21-9.58,10.76-9.56C865.09,921.86,865.8,922.07,865.89,923.25Z" transform="translate(-523.08 -28.33)"/><path class="cls-2" d="M879,917a5.81,5.81,0,0,1-4,3.57c-1,.19-1.33-.94-1-1.74a5.8,5.8,0,0,1,3.72-3.62C878.58,914.92,879,915.78,879,917Z" transform="translate(-523.08 -28.33)"/><path class="cls-1" d="M1165.2,869.31c-1.9-.66-4.87.91-4.72-1.76s3.16-1.7,5-1.64c1.6.06,4.56-1,4.53,1.39C1170,870.82,1166.45,868,1165.2,869.31Z" transform="translate(-523.08 -28.33)"/><path class="cls-2" d="M1045.16,866.9c-.2,1.34,0,3-1.48,2.92-2.24-.07-1.51-2.07-1.55-3.39,0-1.1-.07-2.63,1.55-2.43C1045.48,864.22,1044.93,866,1045.16,866.9Z" transform="translate(-523.08 -28.33)"/><path class="cls-1" d="M1063.51,860.13c0,1.26,0,2.42-.17,3.56-.1.84-.45,1.66-1.49,1.64a1.72,1.72,0,0,1-1.62-1.58,10.46,10.46,0,0,1-.2-3.43c.28-1.85-1.52-5.14,1.82-5.07C1064.28,855.3,1063.09,858.45,1063.51,860.13Z" transform="translate(-523.08 -28.33)"/><path class="cls-3" d="M948.38,935.33c-.33.34-.7.67-1.06.09-.06-.1.3-.45.47-.69C948,934.93,948.19,935.12,948.38,935.33Z" transform="translate(-523.08 -28.33)"/><path class="cls-1" d="M879,951.92c-1.3.11-2.14-.72-3-1.49-2-1.8-.16-3.68,0-5.51.07-1,1.11-1.21,1.92-1,2.09.66.8,2.53,1.25,3.79s1.5,2.65.26,4.11Z" transform="translate(-523.08 -28.33)"/><path class="cls-1" d="M863,952.9c1.37-3.54,5.64-4.44,7.18-7.83,2.25-.2,3.11.66,2.3,2.92s-1.61,4.65-2.42,7c-1.06.85-3-4-3.59.59a1.76,1.76,0,0,1-2.38,1.24C862,956,863.25,954.23,863,952.9Z" transform="translate(-523.08 -28.33)"/><path class="cls-2" d="M858,951.94c0-1.45.48-2.88,2-2.75,2,.17,2.91,1.77,3,3.75C861,954.44,859.33,954,858,951.94Z" transform="translate(-523.08 -28.33)"/><path class="cls-1" d="M966.07,151.24c.26-3.51,1.88-4.3,4.91-4.26,14.22.16,12.43-3.35,11.85,12.47-.21,5.79-1.42,11.54-2.09,17.31-.15,1.28-.31,2.28-1.89,2.39-.63,0-1.75.25-1.8.53-1.12,6.52-6.3,4-9.78,4-5.62,0-11.23-1-16.85-1.63-.33,0-.82.07-1-.11-3.39-4.21-1-9.13-1.61-13.69-.33-2.52,1.65-2.34,3.32-2.51,1.48-.15,2.93-.51,5-.89-5.11-8.55-10.07-16.76-14.93-25-1.44-2.47-2.64-1.06-3.86,0-4.23,3.76-8.37,7.62-12.63,11.33-1.79,1.56-3.69,4-6,.46a1.42,1.42,0,0,0-1.32-.4c-4.44,3.07-5.58-1.11-6.66-3.49-5.91-13.14-13.72-25-22.5-36.38-1.35-1.75-2.06-3.8.62-5.4a7.06,7.06,0,0,0,2.53-3.61c1.94-4.59,6-5.17,9-.92,6.34,9.16,13.58,17.76,18.4,27.87,1.81,3.81,3,3.83,5.76,1,3.54-3.69,8.24-6,11.57-10.15,1.12-1.39,4-1.83,7-1.37,5.87.89,6.91,4.92,9.09,9C956.5,135.77,961.42,143.43,966.07,151.24Z" transform="translate(-523.08 -28.33)"/><path class="cls-1" d="M943.43,795a127.92,127.92,0,0,1,4.4-12.26c.84-1.81,2.22-.71,3.18.9,3.29,5.5,4.17,11.47,4,17.72,0,1,.21,2-1,2.45-2.25.69-2.95-5-6.37-1.53C947.16,802.67,943.38,799.13,943.43,795Z" transform="translate(-523.08 -28.33)"/><path class="cls-2" d="M915,799c-7.09-.27-7.05-.31-6.84-7.39.15-4.9,0-9.82,0-14.72,3.31.37,4.68,2.17,4.91,5.55C913.45,787.93,914.32,793.43,915,799Z" transform="translate(-523.08 -28.33)"/><path class="cls-2" d="M984.94,785.9a9,9,0,0,1,.11-1.48c.42-1.75-1.21-4.84,1.42-5,2.83-.17.7,3.35,2.07,4.72,4.78-2.53,5.7-2.1,7.15,3.45a50.76,50.76,0,0,1,1.27,5.25c.41,2.76-.81,3.29-3.09,1.95.65-2.25-1-3.13-2.54-3.47-2.48-.54-4.71-.9-4.35-4.28C987,786.73,985.65,786.28,984.94,785.9Z" transform="translate(-523.08 -28.33)"/><path class="cls-2" d="M972.06,796.68c-1.56.5-1.94,3.17-3.95,2.52-2.26-.72-1.16-3.19-1.92-4.74a1.33,1.33,0,0,1-.12-1c1.39-2.78-3.76-5.27-.87-7.49,2.29-1.77,4.53,2.17,7.75,1.69,2.53-.37,3.27,2.65,2.09,5.21-.56-.26-1.29-.39-1.62-.82-.73-.94-.76-2.84-2.59-2.14s-2.05,2.34-2.15,4C968.53,796.45,971,795.68,972.06,796.68Z" transform="translate(-523.08 -28.33)"/><path class="cls-1" d="M984.94,785.9c.71.38,2.07.83,2,1.14-.36,3.38,1.87,3.74,4.35,4.28,1.56.34,3.19,1.22,2.54,3.47-2.63,0-5.33-.42-7.86.06-3.73.71-3.12-2.21-3.62-3.93C981.73,788.69,981.19,786.08,984.94,785.9Z" transform="translate(-523.08 -28.33)"/><path class="cls-2" d="M931,788.9,929,797a4.12,4.12,0,0,1-3.13-.61c3.6-2.44,2.86-4-1-4.93.06-1.8.08-3.6.2-5.4s-.68-4,2.61-4.15,3.5,1.68,3.44,4Z" transform="translate(-523.08 -28.33)"/><path class="cls-1" d="M972.06,796.68c-1-1-3.53-.23-3.38-2.73.1-1.68.43-3.37,2.15-4s1.86,1.2,2.59,2.14c.33.43,1.06.56,1.62.82.85.46,1.94,1.06,1.57,2.1C975.84,797.21,973.56,796,972.06,796.68Z" transform="translate(-523.08 -28.33)"/><path class="cls-1" d="M924.85,791.46c3.85.93,4.59,2.49,1,4.93C922.68,795.32,921,794,924.85,791.46Z" transform="translate(-523.08 -28.33)"/><path class="cls-2" d="M962.75,747.76a28.72,28.72,0,0,1,10.61,1.34c1.23.39,2.77.67,2.86,2.34s-1.16,2.26-2.45,2.77a38.61,38.61,0,0,1-13.49,3c-3.92.09-7.72-1.46-11.76-.32-1.92.55-3.15-1.49-3.55-3.44s1-2.27,2.55-2.81C952.56,748.82,957.59,747.19,962.75,747.76Zm5.43,4.22a23.73,23.73,0,0,0-14.17.64C958.74,754.16,962.93,754,968.18,752Z" transform="translate(-523.08 -28.33)"/><path class="cls-2" d="M924.26,752.22c.44-1,1.19-.75,1.94-.49Z" transform="translate(-523.08 -28.33)"/><path class="cls-2" d="M946,743.92l-.12.43L946,744Z" transform="translate(-523.08 -28.33)"/><path class="cls-1" d="M692.06,832c-.26-3.71,2.13-2.25,3.91-2l30.39,4c-.56,3.19-2.8,3.36-5.18,2.61C711.7,833.56,701.67,834.15,692.06,832Z" transform="translate(-523.08 -28.33)"/><path class="cls-1" d="M862,847.93a17.51,17.51,0,0,1,0-2.21c.2-1.5-.4-3.93,2.09-3.6,2.7.36,2,2.39,1.13,4.16a5.64,5.64,0,0,0-.21,1.45c-.29,1.83.34,4.9-2.19,4.65S862.47,849.3,862,847.93Z" transform="translate(-523.08 -28.33)"/><path class="cls-2" d="M860.11,844.53c-.1,1.44.45,3.37-1.77,3.38-2,0-2-1.87-2.12-3.3-.13-1.68,0-3.66,2.26-3.56S859.78,843.27,860.11,844.53Z" transform="translate(-523.08 -28.33)"/><path class="cls-2" d="M869.45,847.14a2.92,2.92,0,0,1-2.58-3c0-1.33.29-2.93,1.91-2.92,1.93,0,1.91,1.92,2.17,3.29C871.16,845.64,871,846.79,869.45,847.14Z" transform="translate(-523.08 -28.33)"/><path class="cls-2" d="M825.79,986.11l-1.06.21c-.63-2.66-1.25-5.33-2.18-9.28C825.6,980.39,825.58,983.29,825.79,986.11Z" transform="translate(-523.08 -28.33)"/><path class="cls-3" d="M820.07,1005a1.53,1.53,0,0,1,1-2l-.06-.07c.49,1.06,0,1.66-1,2Z" transform="translate(-523.08 -28.33)"/><path class="cls-2" d="M820.77,974.18c-.56-.59-1.39-1.35-.37-2,.52-.31.86.72,1,1.34C821.21,973.76,821,974,820.77,974.18Z" transform="translate(-523.08 -28.33)"/><path class="cls-3" d="M818.06,1007l-1.49.67-.09-.44,1.67-.15Z" transform="translate(-523.08 -28.33)"/><path class="cls-3" d="M801.92,1006l-.41-.73.65.13c-.11.21-.22.43-.34.64Z" transform="translate(-523.08 -28.33)"/><path class="cls-3" d="M819.1,1006c-.1-.74.15-1.15,1-1l-.06-.07a.93.93,0,0,1-1,1Z" transform="translate(-523.08 -28.33)"/><path class="cls-2" d="M821.44,973.56c.45.42.78.88.16,1.38a6.59,6.59,0,0,1-.83-.76C821,974,821.21,973.76,821.44,973.56Z" transform="translate(-523.08 -28.33)"/><path class="cls-2" d="M822.6,976.73l-.28-.16.31-.47c.09.11.26.23.26.33S822.7,976.63,822.6,976.73Z" transform="translate(-523.08 -28.33)"/><path class="cls-3" d="M821,1002.92l.45-1.53a3.24,3.24,0,0,1,.56.55c-.17.52,0,1.4-1.07.91Z" transform="translate(-523.08 -28.33)"/><path class="cls-3" d="M819,1005.9l-1,1.05.09.08c-.35-.95.25-1,1-1.06Z" transform="translate(-523.08 -28.33)"/><path class="cls-2" d="M795,847.11l1.22.14Z" transform="translate(-523.08 -28.33)"/></svg>